<?xml version="1.0" encoding="UTF-8"?> <svg xmlns="http://www.w3.org/2000/svg" width="570" height="380" viewBox="0 0 570 380" fill="none"><path d="M570 0H0V380H570V0Z" fill="#191E27"></path><mask id="mask0_42_334" style="mask-type:alpha" maskUnits="userSpaceOnUse" x="0" y="0" width="570" height="380"><path d="M570 0H0V380H570V0Z" fill="#191E27"></path></mask><g mask="url(#mask0_42_334)"><path d="M-40.4068 405.011L-61.6182 411.721V428.828L-40.4068 421.658V404.988V405.011ZM-40.4068 338.357L-61.6182 330.933V348.525L-40.4068 355.649V338.357ZM-19.1954 414.51L62.3761 386.959V374.324L-19.1954 345.781V362.773L35.2163 381.033L-19.1954 398.279V414.51Z" fill="white" fill-opacity="0.03"></path><path d="M61.2929 405.011L40.0815 411.721V428.828L61.2929 421.658V404.988V405.011ZM61.2929 338.357L40.0815 330.933V348.525L61.2929 355.649V338.357ZM82.5043 414.51L164.099 386.959V374.324L82.5043 345.781V362.773L136.916 381.033L82.5043 398.279V414.51Z" fill="white" fill-opacity="0.03"></path><path d="M163.016 405.011L141.805 411.721V428.828L163.016 421.658V404.988V405.011ZM163.016 338.357L141.805 330.933V348.525L163.016 355.649V338.357ZM184.227 414.51L265.799 386.959V374.324L184.227 345.781V362.773L238.639 381.033L184.227 398.279V414.51Z" fill="white" fill-opacity="0.03"></path><path d="M264.739 405.011L243.527 411.721V428.828L264.739 421.658V404.988V405.011ZM264.739 338.357L243.527 330.933V348.525L264.739 355.649V338.357ZM285.95 414.51L367.522 386.959V374.324L285.95 345.781V362.773L340.362 381.033L285.95 398.279V414.51Z" fill="white" fill-opacity="0.03"></path><path d="M366.437 405.011L345.226 411.721V428.828L366.437 421.658V404.988V405.011ZM366.437 338.357L345.226 330.933V348.525L366.437 355.649V338.357ZM387.648 414.51L469.243 386.959V374.324L387.648 345.781V362.773L442.06 381.033L387.648 398.279V414.51Z" fill="white" fill-opacity="0.03"></path><path d="M468.158 405.011L446.946 411.721V428.828L468.158 421.658V404.988V405.011ZM468.158 338.357L446.946 330.933V348.525L468.158 355.649V338.357ZM489.369 414.51L570.941 386.959V374.324L489.369 345.781V362.773L543.781 381.033L489.369 398.279V414.51Z" fill="white" fill-opacity="0.03"></path><path d="M-40.4068 214.385L-61.6182 221.118V238.225L-40.4068 231.055V214.385ZM-40.4068 147.731L-61.6182 140.307V157.898L-40.4068 165.023V147.731ZM-19.1954 223.884L62.3761 196.333V183.721L-19.1954 155.178V172.17L35.2163 190.43L-19.1954 207.676V223.907V223.884Z" fill="white" fill-opacity="0.03"></path><path d="M61.2929 214.385L40.0815 221.118V238.225L61.2929 231.055V214.385ZM61.2929 147.731L40.0815 140.307V157.898L61.2929 165.023V147.731ZM82.5043 223.884L164.099 196.333V183.721L82.5043 155.178V172.17L136.916 190.43L82.5043 207.676V223.907V223.884Z" fill="white" fill-opacity="0.03"></path><path d="M163.016 214.385L141.805 221.118V238.225L163.016 231.055V214.385ZM163.016 147.731L141.805 140.307V157.898L163.016 165.023V147.731ZM184.227 223.884L265.799 196.333V183.721L184.227 155.178V172.17L238.639 190.43L184.227 207.676V223.907V223.884Z" fill="white" fill-opacity="0.03"></path><path d="M264.739 214.385L243.527 221.118V238.225L264.739 231.055V214.385ZM264.739 147.731L243.527 140.307V157.898L264.739 165.023V147.731ZM285.95 223.884L367.522 196.333V183.721L285.95 155.178V172.17L340.362 190.43L285.95 207.676V223.907V223.884Z" fill="white" fill-opacity="0.03"></path><path d="M366.437 214.385L345.226 221.118V238.225L366.437 231.055V214.385ZM366.437 147.731L345.226 140.307V157.898L366.437 165.023V147.731ZM387.648 223.884L469.243 196.333V183.721L387.648 155.178V172.17L442.06 190.43L387.648 207.676V223.907V223.884Z" fill="white" fill-opacity="0.03"></path><path d="M468.158 214.385L446.946 221.118V238.225L468.158 231.055V214.385ZM468.158 147.731L446.946 140.307V157.898L468.158 165.023V147.731ZM489.369 223.884L570.941 196.333V183.721L489.369 155.178V172.17L543.781 190.43L489.369 207.676V223.907V223.884Z" fill="white" fill-opacity="0.03"></path><path d="M489.069 309.353L510.281 316.085V333.192L489.069 326.022V309.353ZM489.069 242.698L510.281 235.274V252.866L489.069 259.99V242.698ZM467.858 318.852L386.287 291.3V278.665L467.858 250.122V267.114L413.446 285.375L467.858 302.62V318.852Z" fill="white" fill-opacity="0.03"></path><path d="M387.348 309.353L408.56 316.085V333.192L387.348 326.022V309.353ZM387.348 242.698L408.56 235.274V252.866L387.348 259.99V242.698ZM366.137 318.852L284.565 291.3V278.665L366.137 250.122V267.114L311.725 285.375L366.137 302.62V318.852Z" fill="white" fill-opacity="0.03"></path><path d="M285.649 309.353L306.86 316.085V333.192L285.649 326.022V309.353ZM285.649 242.698L306.86 235.274V252.866L285.649 259.99V242.698ZM264.437 318.852L182.866 291.3V278.665L264.437 250.122V267.114L210.025 285.375L264.437 302.62V318.852Z" fill="white" fill-opacity="0.03"></path><path d="M183.927 309.353L205.138 316.085V333.192L183.927 326.022V309.353ZM183.927 242.698L205.138 235.274V252.866L183.927 259.99V242.698ZM162.716 318.852L81.1211 291.3V278.665L162.716 250.122V267.114L108.304 285.375L162.716 302.62V318.852Z" fill="white" fill-opacity="0.03"></path><path d="M82.2277 309.353L103.439 316.085V333.192L82.2277 326.022V309.353ZM82.2277 242.698L103.439 235.274V252.866L82.2277 259.99V242.698ZM61.0164 318.852L-20.5552 291.3V278.665L61.0164 250.122V267.114L6.60461 285.375L61.0164 302.62V318.852Z" fill="white" fill-opacity="0.03"></path><path d="M-19.4939 309.353L1.71754 316.085V333.192L-19.4939 326.022V309.353ZM-19.4939 242.698L1.71754 235.274V252.866L-19.4939 259.99V242.698ZM-40.7052 318.852L-122.277 291.3V278.665L-40.7052 250.122V267.114L-95.117 285.375L-40.7052 302.62V318.852Z" fill="white" fill-opacity="0.03"></path><path d="M-40.4068 23.7372L-61.6182 30.4695V47.5769L-40.4068 40.4066V23.7372ZM-40.4068 -42.9171L-61.6182 -50.3411V-32.7495L-40.4068 -25.6253V-42.9171ZM-19.1954 33.2362L62.3761 5.68456V-6.92698L-19.1954 -35.4701V-18.478L35.2163 -0.217728L-19.1954 17.028V33.2593V33.2362Z" fill="white" fill-opacity="0.03"></path><path d="M61.2929 23.7372L40.0815 30.4695V47.5769L61.2929 40.4066V23.7372ZM61.2929 -42.9171L40.0815 -50.3411V-32.7495L61.2929 -25.6253V-42.9171ZM82.5043 33.2362L164.099 5.68456V-6.92698L82.5043 -35.4701V-18.478L136.916 -0.217728L82.5043 17.028V33.2593V33.2362Z" fill="white" fill-opacity="0.03"></path><path d="M163.016 23.7372L141.805 30.4695V47.5769L163.016 40.4066V23.7372ZM163.016 -42.9171L141.805 -50.3411V-32.7495L163.016 -25.6253V-42.9171ZM184.227 33.2362L265.799 5.68456V-6.92698L184.227 -35.4701V-18.478L238.639 -0.217728L184.227 17.028V33.2593V33.2362Z" fill="white" fill-opacity="0.03"></path><path d="M264.739 23.7372L243.527 30.4695V47.5769L264.739 40.4066V23.7372ZM264.739 -42.9171L243.527 -50.3411V-32.7495L264.739 -25.6253V-42.9171ZM285.95 33.2362L367.522 5.68456V-6.92698L285.95 -35.4701V-18.478L340.362 -0.217728L285.95 17.028V33.2593V33.2362Z" fill="white" fill-opacity="0.03"></path><path d="M366.437 23.7372L345.226 30.4695V47.5769L366.437 40.4066V23.7372ZM366.437 -42.9171L345.226 -50.3411V-32.7495L366.437 -25.6253V-42.9171ZM387.648 33.2362L469.243 5.68456V-6.92698L387.648 -35.4701V-18.478L442.06 -0.217728L387.648 17.028V33.2593V33.2362Z" fill="white" fill-opacity="0.03"></path><path d="M468.158 23.7372L446.946 30.4695V47.5769L468.158 40.4066V23.7372ZM468.158 -42.9171L446.946 -50.3411V-32.7495L468.158 -25.6253V-42.9171ZM489.369 33.2362L570.941 5.68456V-6.92698L489.369 -35.4701V-18.478L543.781 -0.217728L489.369 17.028V33.2593V33.2362Z" fill="white" fill-opacity="0.03"></path><path d="M489.069 118.727L510.281 125.459V142.567L489.069 135.396V118.727ZM489.069 52.0956L510.281 44.6716V62.2632L489.069 69.3875V52.0956ZM467.858 128.249L386.287 100.697V88.0857L467.858 59.5426V76.5348L413.446 94.795L467.858 112.041V128.272V128.249Z" fill="white" fill-opacity="0.03"></path><path d="M387.348 118.727L408.56 125.459V142.567L387.348 135.396V118.727ZM387.348 52.0956L408.56 44.6716V62.2632L387.348 69.3875V52.0956ZM366.137 128.249L284.565 100.697V88.0857L366.137 59.5426V76.5348L311.725 94.795L366.137 112.041V128.272V128.249Z" fill="white" fill-opacity="0.03"></path><path d="M285.649 118.727L306.86 125.459V142.567L285.649 135.396V118.727ZM285.649 52.0956L306.86 44.6716V62.2632L285.649 69.3875V52.0956ZM264.437 128.249L182.866 100.697V88.0857L264.437 59.5426V76.5348L210.025 94.795L264.437 112.041V128.272V128.249Z" fill="white" fill-opacity="0.03"></path><path d="M183.927 118.727L205.138 125.459V142.567L183.927 135.396V118.727ZM183.927 52.0956L205.138 44.6716V62.2632L183.927 69.3875V52.0956ZM162.716 128.249L81.1211 100.697V88.0857L162.716 59.5426V76.5348L108.304 94.795L162.716 112.041V128.272V128.249Z" fill="white" fill-opacity="0.03"></path><path d="M82.2277 118.727L103.439 125.459V142.567L82.2277 135.396V118.727ZM82.2277 52.0956L103.439 44.6716V62.2632L82.2277 69.3875V52.0956ZM61.0164 128.249L-20.5552 100.697V88.0857L61.0164 59.5426V76.5348L6.60461 94.795L61.0164 112.041V128.272V128.249Z" fill="white" fill-opacity="0.03"></path><path d="M-19.4939 118.727L1.71754 125.459V142.567L-19.4939 135.396V118.727ZM-19.4939 52.0956L1.71754 44.6716V62.2632L-19.4939 69.3875V52.0956ZM-40.7052 128.249L-122.277 100.697V88.0857L-40.7052 59.5426V76.5348L-95.117 94.795L-40.7052 112.041V128.272V128.249Z" fill="white" fill-opacity="0.03"></path><path d="M573.871 405.011L552.659 411.721V428.828L573.871 421.658V404.988V405.011ZM573.871 338.357L552.659 330.933V348.525L573.871 355.649V338.357ZM595.082 414.51L676.676 386.959V374.324L595.082 345.781V362.773L649.494 381.033L595.082 398.279V414.51Z" fill="white" fill-opacity="0.03"></path><path d="M573.871 214.385L552.659 221.118V238.225L573.871 231.055V214.385ZM573.871 147.731L552.659 140.307V157.898L573.871 165.023V147.731ZM595.082 223.884L676.676 196.333V183.721L595.082 155.178V172.17L649.494 190.43L595.082 207.676V223.907V223.884Z" fill="white" fill-opacity="0.03"></path><path d="M594.783 309.353L615.994 316.085V333.192L594.783 326.022V309.353ZM594.783 242.698L615.994 235.274V252.866L594.783 259.99V242.698ZM573.572 318.852L492 291.3V278.665L573.595 250.122V267.114L519.183 285.375L573.595 302.62V318.852H573.572Z" fill="white" fill-opacity="0.03"></path><path d="M573.871 23.7372L552.659 30.4695V47.5769L573.871 40.4066V23.7372ZM573.871 -42.9171L552.659 -50.3411V-32.7495L573.871 -25.6253V-42.9171ZM595.082 33.2362L676.676 5.68456V-6.92698L595.082 -35.4701V-18.478L649.494 -0.217728L595.082 17.028V33.2593V33.2362Z" fill="white" fill-opacity="0.03"></path><path d="M594.783 118.727L615.994 125.459V142.567L594.783 135.396V118.727ZM594.783 52.0956L615.994 44.6716V62.2632L594.783 69.3875V52.0956ZM573.572 128.249L492 100.651V88.0396L573.595 59.4965V76.4887L519.183 94.7489L573.595 111.995V128.226L573.572 128.249Z" fill="white" fill-opacity="0.03"></path></g><path d="M135.956 194.12L210.758 167.885V155.807L135.956 128.739V144.98L185.893 162.262L135.956 178.712V194.12ZM116.478 121.867L97 114.788V131.446L116.478 138.109V121.867ZM116.478 185.167L97 191.622V207.863L116.478 200.991V185.167Z" fill="#DD001F"></path><path d="M167.032 242.913V222.91C167.032 217.646 165.995 214.067 163.715 211.962C161.436 209.856 157.705 208.803 152.317 208.803C147.551 208.803 143.613 209.646 140.297 211.54C136.982 213.436 135.324 215.752 135.324 218.278C135.324 219.331 135.738 220.173 136.36 220.805C136.982 221.226 138.018 221.647 139.261 221.647H146.722V214.278C147.344 214.067 147.758 214.067 148.38 214.067C151.695 213.646 153.975 214.278 155.219 215.752C156.255 217.015 156.877 218.91 156.877 221.647V223.542C146.929 225.858 140.712 227.964 138.018 229.859C135.116 231.964 133.666 234.912 133.666 238.702C133.666 241.86 134.702 244.387 136.567 246.282C138.432 248.177 140.919 249.229 144.028 249.229C146.1 249.229 148.173 248.809 150.245 247.966C152.317 247.124 154.39 246.071 156.877 244.387L157.913 248.598H172.212V244.387L167.861 243.966L167.032 242.913ZM146.929 231.754C148.587 230.49 151.903 229.227 156.669 228.174V239.965C155.219 240.597 153.975 241.229 152.939 241.649C149.623 242.703 147.344 242.281 145.893 240.807C144.857 239.755 144.442 238.491 144.442 236.807C144.442 234.701 145.271 233.017 146.929 231.754Z" fill="#FAFAFA"></path><path d="M200.866 212.613C199.812 211.766 198.547 211.131 197.493 210.708C196.228 210.285 195.174 209.861 193.909 209.65C192.645 209.438 191.59 209.226 190.536 209.015C189.482 208.803 188.639 208.803 187.585 208.803C185.898 208.803 183.79 209.015 181.682 209.226C179.574 209.438 177.255 210.073 174.936 210.708H174.725V221.926H180.206L181.049 215.788L181.682 215.153C182.314 214.941 182.947 214.73 183.79 214.306C184.633 214.094 185.898 213.883 187.163 213.883C188.639 213.883 189.904 214.094 190.958 214.518C192.012 214.941 192.855 215.364 193.698 216C194.331 216.634 194.964 217.27 195.596 218.116C196.018 218.962 196.439 219.809 196.65 220.656C196.861 221.502 197.072 222.349 197.283 223.407C197.493 224.254 197.493 225.1 197.493 225.947H182.736V231.239H197.493V231.45C197.493 233.99 197.283 236.318 196.65 238.011C196.018 239.705 195.385 240.975 194.331 242.033C193.488 243.091 192.223 243.726 191.169 244.15C189.904 244.573 188.639 244.784 187.374 244.784C186.741 244.784 186.109 244.784 184.844 244.573C183.79 244.361 182.525 243.938 181.049 243.303L180.417 242.668L179.574 235.048H174.092V247.324H174.303C177.044 247.959 179.363 248.594 181.682 248.806C184.001 249.018 185.687 249.229 186.952 249.229C189.904 249.229 192.645 248.806 195.174 247.959C197.704 247.113 200.234 245.843 202.131 244.361C204.24 242.668 205.716 240.551 206.98 238.011C208.245 235.471 208.878 232.509 208.878 228.911C208.878 224.677 208.035 221.29 206.559 218.539C205.083 216.211 203.186 214.094 200.866 212.613Z" fill="#FAFAFA"></path><path d="M239.465 208.803C237.622 208.803 235.779 209.223 233.731 210.061C231.888 210.691 230.045 211.949 227.792 213.417V209.223H223.901L212.638 212.997V216.772H217.758V259.55L216.939 260.388L212.638 260.808V265.212H233.526V260.808L228.611 260.388L227.792 259.55V247.807C228.611 247.807 229.636 248.016 230.455 248.016C231.478 248.016 232.502 248.016 233.526 248.016C239.67 248.016 244.79 246.129 248.476 242.355C252.162 238.58 254.005 233.548 254.005 227.257C254.005 221.804 252.571 217.4 249.909 213.836C247.247 210.691 243.765 208.803 239.465 208.803ZM243.151 228.725C243.151 233.128 242.127 236.693 240.284 239.419C238.441 241.935 235.779 243.193 232.502 243.193C231.683 243.193 230.864 243.193 230.045 242.984C229.43 242.984 228.611 242.774 227.997 242.565V217.4C229.021 216.981 230.045 216.562 231.069 216.352C232.093 216.142 232.912 215.933 233.731 215.933C236.803 215.933 239.055 216.981 240.694 219.288C242.332 221.804 243.151 224.74 243.151 228.725Z" fill="#FAFAFA"></path><path d="M279.801 208.803C273.837 208.803 268.901 210.674 265.199 214.207C261.497 217.947 259.646 222.727 259.646 228.754C259.646 234.573 261.497 239.353 264.993 242.886C268.489 246.419 273.219 248.289 278.978 248.289C284.942 248.289 289.878 246.419 293.58 242.886C297.282 239.353 299.132 234.573 299.132 228.754C299.132 222.519 297.282 217.739 293.785 213.999C290.495 210.674 285.765 208.803 279.801 208.803ZM285.559 239.769C284.119 242.263 282.063 243.509 279.389 243.509C276.715 243.509 274.865 242.263 273.425 239.561C271.985 236.859 271.163 233.118 271.163 228.338C271.163 223.558 271.985 220.025 273.425 217.324C274.865 214.83 276.921 213.583 279.595 213.583C282.268 213.583 284.325 214.83 285.765 217.531C287.204 220.233 288.027 223.974 288.027 228.754C288.027 233.534 287.204 237.275 285.559 239.769Z" fill="#FAFAFA"></path><path d="M339.643 242.694L335.115 233.99C334.704 233.368 334.292 232.746 333.88 232.124C333.469 231.503 332.852 230.881 332.234 230.26C331.205 229.224 329.97 228.602 328.53 228.187C329.147 227.773 329.765 227.358 330.176 226.737C330.793 226.115 331.205 225.286 331.411 224.664L333.675 219.484C333.88 219.069 334.086 218.654 334.292 218.447C334.292 218.24 334.498 218.033 334.704 217.826L339.231 220.934H339.437C341.084 220.727 342.318 220.105 342.936 219.069C343.553 218.033 343.965 216.789 343.965 215.546C343.965 214.303 343.759 213.267 343.348 212.437C342.936 211.609 342.318 211.194 341.701 210.78C341.084 210.365 340.261 210.158 339.643 209.95C339.026 209.743 338.408 209.743 337.791 209.743C336.762 209.743 335.939 209.95 335.115 210.365C334.292 210.78 333.469 211.194 332.852 211.816C332.234 212.437 331.617 213.267 330.999 214.095C330.382 214.924 329.97 215.96 329.558 216.997L327.089 222.385C326.677 223.421 326.06 224.25 325.443 224.871C324.825 225.493 324.002 225.907 322.973 225.907H319.062V215.753L319.886 214.924L324.002 214.51V210.365H303.833V214.51L308.155 214.924L308.978 215.753V242.901L308.155 243.73L303.833 244.144V248.289H324.002V244.144L319.886 243.73L319.062 242.901V231.088H320.915C322.149 231.088 322.973 231.503 323.796 232.124C324.619 232.746 325.237 233.575 325.443 234.405L329.765 245.595V248.289H345.2V244.144L340.878 243.522L339.643 242.694Z" fill="#FAFAFA"></path><path d="M355.332 213.966L360.555 214.389L361.391 215.233C361.391 217.556 361.182 220.09 360.764 222.624C360.555 225.158 360.137 227.692 359.72 230.225C359.302 232.549 358.675 234.871 358.048 236.983C357.422 238.883 356.586 240.572 355.75 241.839L351.363 238.038H351.154C350.109 238.25 349.273 238.461 348.438 238.883C347.811 239.305 347.184 239.728 346.975 240.361C346.558 240.995 346.348 241.417 346.348 242.05C346.348 242.684 346.14 243.106 346.14 243.74C346.14 245.429 346.558 246.696 347.393 247.752C348.229 248.808 349.692 249.229 351.781 249.229C353.87 249.229 355.75 248.596 357.422 247.329C358.884 246.062 360.347 244.584 361.391 242.684C362.435 240.783 363.272 238.461 364.107 236.138C364.733 233.604 365.36 231.07 365.778 228.537C366.196 226.003 366.405 223.469 366.614 221.146C366.823 219.034 366.823 216.923 367.032 215.022H373.926V242.895L373.09 243.74L368.494 244.162V248.385H389.387V244.162L384.999 243.74L384.163 242.895V215.233L384.999 214.389L389.387 213.966V209.743H355.123V213.966H355.332Z" fill="#FAFAFA"></path><path d="M416.743 213.945L420.87 214.366L421.283 215.206L413.441 235.797L405.598 215.206L406.217 214.366L410.345 213.945V209.743H390.327V213.735L395.073 214.366L408.488 248.613C407.662 250.714 406.63 252.606 405.805 254.076C404.979 255.547 403.947 256.597 403.122 257.438L396.518 252.815L396.312 253.025C395.073 253.656 394.041 254.496 393.216 255.547C392.391 256.597 392.184 257.648 392.184 258.909C392.184 260.589 392.803 262.06 394.248 263.321C395.692 264.581 397.343 265.212 399.201 265.212C401.883 265.212 404.567 263.951 407.043 261.22C409.519 258.699 411.789 255.127 413.647 250.714L428.299 214.576L432.633 213.945V209.953H417.156V213.945H416.743Z" fill="#FAFAFA"></path><path d="M472.337 220.503C471.298 218.204 469.843 216.115 467.973 214.444C466.726 213.399 465.271 212.355 463.193 211.31C461.115 210.266 458.621 209.848 455.503 209.848C452.386 209.848 449.477 210.474 446.775 211.937C444.489 213.19 442.618 214.862 440.956 217.16C441.164 214.653 441.579 212.773 442.411 211.101C443.242 209.221 444.489 207.759 445.736 206.713C446.983 205.669 448.438 204.833 450.1 204.415C451.763 203.998 453.426 203.58 454.88 203.371L460.907 202.535C462.362 202.326 463.609 201.908 465.063 201.491C466.311 201.073 467.557 200.237 468.804 199.401C469.843 198.566 470.883 197.312 471.714 195.85C472.545 194.387 472.961 192.507 473.376 190.417V190H468.388V190.209C468.181 191.045 467.557 191.671 466.311 192.089C465.687 192.298 465.063 192.507 464.44 192.507C463.816 192.716 463.193 192.716 462.57 192.716L456.543 193.552C455.296 193.761 454.049 193.97 453.01 194.178C451.763 194.387 450.516 194.805 449.269 195.223C448.022 195.641 446.775 196.477 445.528 197.103C444.281 197.939 443.034 198.984 441.995 200.237C440.541 201.699 439.501 203.58 438.462 205.669C437.423 207.759 436.8 209.848 436.176 212.146C435.553 214.444 435.137 216.742 434.929 219.249C434.721 221.547 434.514 224.055 434.514 226.144C434.514 227.606 434.514 229.069 434.721 230.74C434.929 232.202 435.137 233.874 435.553 235.336C435.968 236.799 436.592 238.261 437.423 239.724C438.255 241.186 439.293 242.44 440.541 243.693C441.787 244.738 443.45 245.782 445.528 246.827C447.606 247.872 450.516 248.289 454.049 248.289C456.335 248.289 458.621 248.081 460.907 247.454C463.193 246.827 465.479 245.782 467.35 244.32C468.388 243.484 469.22 242.649 470.051 241.604C470.883 240.56 471.506 239.515 472.129 238.261C473.376 235.754 474 232.411 474 228.651C474 225.935 473.376 223.01 472.337 220.503ZM454.049 243.902C451.971 243.902 450.516 243.275 449.477 242.231C448.23 240.977 447.399 239.724 446.983 238.261C446.359 236.59 446.152 234.918 445.944 233.456C445.736 231.785 445.736 230.322 445.736 229.278C445.736 226.562 445.944 224.472 446.359 222.801C446.775 221.338 447.19 219.876 447.814 219.04C448.438 217.996 449.269 216.951 450.308 216.115C451.347 215.28 452.594 214.862 454.257 214.862C455.919 214.862 457.374 215.28 458.621 216.115C459.66 216.951 460.699 218.204 461.323 219.458C461.946 220.92 462.362 222.592 462.57 224.264C462.777 226.144 462.985 227.815 462.985 229.486C462.985 229.904 462.985 230.531 462.985 231.158L462.777 233.456C462.777 234.918 462.362 236.59 461.739 238.261C461.115 239.724 460.284 240.977 459.037 242.231C457.582 243.484 455.919 243.902 454.049 243.902Z" fill="#FAFAFA"></path></svg> 