<?xml version="1.0" encoding="UTF-8"?> <svg xmlns="http://www.w3.org/2000/svg" width="570" height="380" viewBox="0 0 570 380" fill="none"><rect width="570" height="380" fill="#1E32FA"></rect><path d="M287.208 186.093C292.473 181.804 297.336 176.022 300.467 169.813C296.174 168.439 291.643 167.467 287.208 167.467C287.208 167.467 287.208 186.093 287.208 186.093ZM283.935 185.95C278.503 181.827 273.664 176.045 270.533 169.837C274.803 168.32 279.357 167.491 283.935 167.491V185.95ZM287.208 102.801C292.473 107.066 297.336 112.706 300.467 118.938C296.174 120.431 291.643 121.426 287.208 121.426C287.208 121.426 287.208 102.801 287.208 102.801ZM283.935 102.801C278.503 107.066 273.664 112.872 270.533 118.938C274.803 120.312 279.357 121.426 283.935 121.426V102.801ZM287.208 164.174V145.951H307.013C307.013 153.273 305.163 160.43 302.032 167.065C297.478 165.43 292.046 164.292 287.208 164.174ZM330.4 145.951H310.452C310.168 153.961 308.436 161.141 305.187 168.297C309.456 170.24 313.275 172.562 316.999 175.595C325.134 167.61 329.949 156.994 330.4 145.951ZM314.58 177.68C311.449 175.05 307.44 172.562 303.598 171.069C300.04 177.538 295.628 182.917 290.054 187.751C299.044 186.638 307.44 183.344 314.58 177.68ZM283.935 164.174V145.951H264.011C264.129 153.273 265.837 160.572 268.992 167.065C273.664 165.43 278.811 164.292 283.935 164.174ZM240.6 145.951H260.571C260.998 153.961 262.706 160.975 266.003 168.297C261.568 170.24 257.725 172.562 254.025 175.595C245.866 167.61 241.193 157.254 240.6 145.951ZM256.42 177.68C259.717 175.192 263.536 172.444 267.402 171.069C270.96 177.538 275.372 182.917 280.946 187.751C271.956 186.638 263.418 183.344 256.42 177.68ZM287.208 124.578V142.8H307.013C307.013 135.478 305.163 128.464 302.032 121.687C297.36 123.345 292.189 124.435 287.208 124.578ZM330.4 142.776H310.452C310.168 134.909 308.318 127.611 305.187 120.573C309.456 118.63 313.441 116.142 316.999 113.251C325.538 121.521 329.949 131.9 330.4 142.776ZM314.58 111.071C311.306 113.843 307.44 116.308 303.598 117.824C300.04 111.189 295.628 105.952 290.054 101C299.044 102.114 307.44 105.431 314.58 111.071ZM283.935 124.578V142.8H264.011C264.129 135.62 265.837 128.322 268.992 121.687C273.664 123.345 278.811 124.435 283.935 124.578ZM240.6 142.776H260.571C260.998 134.767 262.706 127.753 266.003 120.573C261.568 118.63 257.725 116.284 254.025 113.251C245.723 121.284 241.193 131.615 240.6 142.776ZM256.42 111.071C259.717 113.843 263.418 116.308 267.402 117.824C270.818 111.331 275.514 105.834 280.946 101C271.956 102.114 263.536 105.431 256.42 111.071ZM142 158.913H231.61C234.907 174.908 246.292 188.154 268.968 197.396C266.382 204.978 257.559 211.992 248.427 211.992H199.874C192.427 211.992 186.615 205.902 184.196 201.092H233.627C236.639 200.571 236.781 198.225 233.769 197.941H185.169C178.907 197.941 173.19 192.68 169.917 187.04H226.487C229.333 186.614 229.333 184.268 226.487 183.865H169.49C163.798 183.865 158.532 177.396 156.374 172.989H218.944C222.075 172.562 222.075 169.813 218.944 169.671H155.235C150.254 169.671 145.416 164.434 142 158.913ZM429 158.913H339.366C336.093 174.908 324.684 188.154 302.032 197.396C304.594 204.978 313.417 211.992 322.549 211.992H371.149C378.573 211.992 384.408 205.902 386.828 201.092H337.373C334.385 200.571 334.219 198.225 337.231 197.941H385.831C392.117 197.941 397.786 192.68 401.059 187.04H344.513C341.643 186.614 341.643 184.268 344.513 183.865H401.533C407.226 183.865 412.468 177.396 414.603 172.989H352.032C348.901 172.562 348.901 169.813 352.032 169.671H415.741C420.746 169.671 425.608 164.434 429 158.913ZM327.981 280L356.728 223.177H375.537L387.373 280H369.56L368.706 273.247H349.873L346.885 280H327.981ZM354.617 261.399H366.714L363.583 240.57L354.617 261.399ZM290.623 280L297.17 237.252H280.495L283.365 222.893H334.527L331.657 237.252H315.86L309.456 280H290.623ZM213.655 280L242.45 223.177H261.259L273.095 280H255.424L254.404 273.247H235.619L232.63 280H213.655ZM240.339 261.399H252.436L249.281 240.57L240.339 261.399ZM182.892 280L194.561 223.177H213.655L201.985 280H182.892Z" fill="white"></path></svg> 