<?xml version="1.0" encoding="UTF-8"?> <svg xmlns="http://www.w3.org/2000/svg" width="570" height="380" viewBox="0 0 570 380" fill="none"><rect width="570" height="380" fill="#272727"></rect><path d="M154.872 225.332C153.003 226.618 151.25 227.552 149.73 228.137C148.211 228.721 146.691 229.013 145.289 229.013C143.127 229.013 141.433 228.312 140.03 226.968C138.686 225.624 137.985 223.871 137.985 221.768C137.985 219.138 138.979 217.151 140.966 215.749C142.952 214.347 147.627 212.827 154.931 211.133V209.496C154.931 207.51 154.522 205.991 153.645 205.114C152.769 204.179 151.425 203.712 149.613 203.712C149.204 203.712 148.795 203.712 148.386 203.77C147.977 203.828 147.451 203.887 146.984 204.004V209.205H141.842C140.965 209.205 140.322 209.029 139.914 208.737C139.505 208.386 139.329 207.919 139.329 207.159C139.329 205.406 140.498 203.887 142.835 202.601C145.173 201.316 148.036 200.673 151.425 200.673C155.223 200.673 157.911 201.433 159.488 202.894C161.066 204.354 161.826 206.926 161.826 210.548V224.923L162.586 225.683L165.566 225.975V228.429H155.632L154.872 225.332ZM154.872 223.053V213.996C151.191 214.814 148.737 215.69 147.393 216.684C146.049 217.619 145.406 218.963 145.406 220.599C145.406 221.884 145.757 222.878 146.516 223.637C147.276 224.397 148.269 224.748 149.555 224.748C150.256 224.748 151.074 224.631 151.951 224.339C152.827 224.046 153.82 223.579 154.872 223.053Z" fill="white"></path><path d="M185.55 212.827V212.535C185.55 211.951 185.492 211.367 185.433 210.724C185.374 210.081 185.199 209.38 185.024 208.737C184.791 208.094 184.557 207.452 184.147 206.867C183.797 206.283 183.33 205.757 182.804 205.29C182.278 204.822 181.577 204.472 180.817 204.179C180.057 203.887 179.123 203.77 178.071 203.77C177.077 203.77 176.259 203.887 175.558 204.121C174.915 204.355 174.331 204.53 173.981 204.705L173.279 205.348L172.753 209.555H169.422V202.135C171.117 201.609 172.695 201.258 174.214 201.083C175.733 200.907 177.136 200.79 178.363 200.79C179.005 200.79 179.649 200.849 180.35 200.907C181.051 201.024 181.869 201.141 182.745 201.316C183.621 201.491 184.44 201.784 185.258 202.076C186.076 202.426 186.894 202.836 187.654 203.362C189.231 204.413 190.517 205.816 191.627 207.627C192.737 209.438 193.263 211.834 193.263 214.814C193.263 217.268 192.854 219.372 191.978 221.125C191.101 222.878 189.991 224.339 188.588 225.508C187.186 226.676 185.55 227.494 183.68 228.078C181.81 228.663 179.882 228.897 177.837 228.897C176.902 228.897 175.616 228.838 174.038 228.663C172.461 228.488 170.767 228.137 168.838 227.611V219.372H172.227L172.87 224.163L173.396 224.806C174.506 225.332 175.441 225.624 176.201 225.741C177.019 225.858 177.603 225.916 178.012 225.916C178.947 225.916 179.882 225.799 180.758 225.508C181.635 225.215 182.453 224.689 183.213 223.988C183.914 223.229 184.498 222.235 184.966 221.008C185.374 219.781 185.608 218.145 185.608 216.275V215.866H175.09V212.769H185.55V212.827Z" fill="white"></path><path d="M193.263 240.7V238.129L196.301 237.836L197.061 237.019V205.757H193.263V203.537L201.326 200.907H203.839V204.238C205.592 203.011 207.17 202.134 208.572 201.55C209.974 200.965 211.319 200.732 212.604 200.732C215.642 200.732 218.155 201.959 220.142 204.413C222.129 206.867 223.122 210.022 223.122 213.821C223.122 218.262 221.778 221.826 219.149 224.456C216.461 227.085 212.897 228.429 208.397 228.429C207.637 228.429 206.878 228.429 206.118 228.371C205.358 228.312 204.599 228.253 203.839 228.196V237.077L204.657 237.836L208.105 238.071V240.641H193.263V240.7ZM203.839 225.157C204.424 225.273 205.008 225.39 205.592 225.449C206.177 225.508 206.761 225.566 207.345 225.566C209.858 225.566 211.845 224.572 213.305 222.644C214.766 220.716 215.526 218.087 215.526 214.814C215.526 211.893 214.883 209.614 213.598 207.978C212.312 206.341 210.5 205.524 208.221 205.524C207.637 205.524 206.994 205.581 206.235 205.757C205.534 205.932 204.716 206.225 203.781 206.575V225.157H203.839Z" fill="white"></path><path d="M240.301 200.732C244.567 200.732 247.956 202.017 250.468 204.588C252.981 207.159 254.267 210.666 254.267 215.048C254.267 219.197 252.981 222.585 250.351 225.098C247.722 227.611 244.216 228.897 239.892 228.897C235.685 228.897 232.354 227.611 229.783 225.04C227.212 222.469 225.927 219.08 225.927 214.931C225.927 210.666 227.212 207.218 229.842 204.588C232.471 202.017 235.919 200.732 240.301 200.732ZM240.067 203.712C238.022 203.712 236.445 204.705 235.334 206.633C234.165 208.562 233.64 211.308 233.64 214.756C233.64 218.32 234.224 221.067 235.334 223.053C236.445 225.04 238.022 226.033 240.067 226.033C242.171 226.033 243.807 225.098 244.917 223.17C246.086 221.242 246.612 218.495 246.612 214.989C246.612 211.483 246.027 208.679 244.859 206.751C243.69 204.705 242.113 203.712 240.067 203.712Z" fill="white"></path><path d="M255.26 226.033L258.24 225.741L259 224.982V204.998L258.24 204.179L255.26 203.887V201.374H269.518V203.887L266.654 204.179L265.895 204.939V212.769H268.992C269.868 212.769 270.569 212.535 271.095 212.009C271.621 211.483 272.03 210.841 272.322 210.081L274.134 206.166C274.484 205.406 274.835 204.705 275.244 204.004C275.653 203.361 276.062 202.835 276.588 202.368C277.056 201.9 277.582 201.55 278.165 201.316C278.75 201.083 279.393 200.965 280.036 200.965C280.386 200.965 280.795 201.024 281.321 201.083C281.847 201.141 282.315 201.316 282.724 201.608C283.191 201.842 283.542 202.251 283.892 202.777C284.184 203.303 284.359 203.946 284.359 204.822C284.359 205.699 284.126 206.458 283.6 207.159C283.132 207.919 282.315 208.328 281.263 208.445L277.757 206.107C277.582 206.341 277.406 206.575 277.289 206.809C277.172 207.042 277.056 207.335 276.88 207.627L275.244 211.425C275.01 211.893 274.718 212.419 274.309 212.944C273.9 213.47 273.316 213.879 272.497 214.171V214.288C273.842 214.463 274.952 215.048 275.828 215.866C276.296 216.334 276.705 216.742 276.997 217.21C277.348 217.619 277.64 218.087 277.874 218.554L281.204 224.982L282.081 225.683L285.119 226.092V228.604H274.426V226.793L271.212 218.554C270.979 217.911 270.511 217.268 269.868 216.801C269.226 216.275 268.407 216.041 267.531 216.041H265.895V225.04L266.654 225.799L269.518 226.092V228.604H255.26V226.033Z" fill="white"></path><path d="M315.329 201.375V203.887L312.349 204.179L311.589 204.939V224.923L312.349 225.683L315.329 225.975V228.487H300.837V225.975L303.934 225.683L304.694 224.923V204.472H299.143C299.085 205.815 298.967 207.335 298.85 209.088C298.734 210.841 298.5 212.594 298.208 214.405C297.916 216.216 297.507 217.969 297.039 219.722C296.572 221.476 295.929 223.053 295.169 224.397C294.41 225.741 293.475 226.851 292.365 227.67C291.254 228.487 289.969 228.897 288.45 228.897C287.106 228.897 286.112 228.546 285.528 227.903C284.944 227.202 284.651 226.325 284.651 225.273C284.651 224.923 284.71 224.572 284.769 224.163C284.827 223.755 285.002 223.404 285.236 222.995C285.47 222.585 285.82 222.294 286.229 222.06C286.697 221.768 287.281 221.592 287.982 221.534L291.254 224.456C291.955 223.404 292.54 222.118 293.066 220.599C293.592 219.08 294.001 217.443 294.351 215.69C294.702 213.937 294.935 212.126 295.111 210.256C295.286 208.386 295.403 206.633 295.52 204.88L294.702 204.121L291.138 203.829V201.316H315.329V201.375Z" fill="white"></path><path d="M317.141 201.491H331.282V203.887L328.477 204.238L327.893 204.998L333.911 220.716L339.988 205.056L339.52 204.238L336.599 203.887V201.491H347.292V203.887L344.254 204.354L333.444 230.474C332.099 233.688 330.522 236.142 328.71 238.012C326.841 239.823 324.971 240.758 323.101 240.758C321.815 240.758 320.647 240.349 319.712 239.531C318.777 238.713 318.309 237.72 318.309 236.609C318.309 235.792 318.543 235.09 319.069 234.389C319.595 233.688 320.296 233.162 321.231 232.636L326.081 235.967C326.841 235.382 327.6 234.506 328.301 233.338C329.061 232.168 329.762 230.825 330.405 229.188L320.53 204.354L317.199 203.887V201.491H317.141Z" fill="white"></path><path d="M375.105 187C374.872 188.519 374.521 189.805 373.937 190.798C373.411 191.792 372.71 192.668 371.95 193.311C371.19 193.954 370.314 194.421 369.379 194.772C368.444 195.122 367.509 195.356 366.457 195.473L362.075 196.174C360.906 196.349 359.679 196.641 358.51 196.992C357.342 197.343 356.232 197.927 355.238 198.745C354.245 199.563 353.427 200.673 352.726 202.017C352.082 203.42 351.674 205.173 351.557 207.393H351.674C352.901 205.465 354.42 204.004 356.348 202.952C358.218 201.9 360.322 201.433 362.542 201.433C364.763 201.433 366.574 201.784 367.977 202.426C369.437 203.069 370.606 203.829 371.424 204.588C372.71 205.757 373.761 207.159 374.521 208.854C375.28 210.548 375.69 212.652 375.69 215.048C375.69 217.794 375.222 220.073 374.287 221.884C373.82 222.819 373.294 223.579 372.71 224.281C372.125 224.982 371.483 225.624 370.781 226.15C369.379 227.202 367.859 227.962 366.106 228.371C364.412 228.779 362.776 228.955 361.14 228.955C358.686 228.955 356.641 228.604 355.121 227.845C353.543 227.085 352.316 226.325 351.499 225.566C350.564 224.689 349.804 223.755 349.278 222.703C348.694 221.651 348.285 220.599 347.934 219.547C347.642 218.437 347.408 217.385 347.291 216.275C347.174 215.165 347.116 214.113 347.116 213.061C347.116 211.483 347.233 209.789 347.408 208.094C347.584 206.4 347.875 204.647 348.285 203.011C348.694 201.375 349.278 199.797 349.921 198.336C350.622 196.875 351.44 195.59 352.433 194.538C353.252 193.661 354.128 192.902 355.005 192.317C355.881 191.733 356.757 191.266 357.693 190.915C358.569 190.564 359.504 190.272 360.38 190.097C361.257 189.922 362.133 189.746 363.01 189.63L367.392 189.104C367.859 189.045 368.327 188.987 368.795 188.87C369.262 188.753 369.73 188.695 370.138 188.519C371.015 188.227 371.599 187.76 371.774 187H375.105ZM361.432 204.413C360.147 204.413 359.095 204.705 358.335 205.348C357.575 205.991 356.933 206.692 356.465 207.568C356.115 208.328 355.764 209.263 355.413 210.373C355.121 211.542 354.946 213.12 354.946 215.106C354.946 215.924 355.004 216.917 355.121 218.145C355.238 219.372 355.472 220.541 355.881 221.768C356.29 222.878 356.933 223.871 357.809 224.748C358.627 225.566 359.854 225.975 361.374 225.975C362.893 225.975 364.12 225.566 365.055 224.689C365.99 223.813 366.632 222.819 367.042 221.709C367.509 220.541 367.743 219.372 367.801 218.203C367.859 217.619 367.859 217.093 367.918 216.626C367.918 216.158 367.977 215.749 367.977 215.399C367.977 214.113 367.918 212.827 367.743 211.542C367.567 210.256 367.217 209.029 366.749 207.978C366.282 206.926 365.581 206.049 364.763 205.406C363.886 204.764 362.776 204.413 361.432 204.413Z" fill="white"></path><path d="M383.423 226.585L386.82 226.16L387.67 225.311V204.501H382.998L382.149 205.351L381.299 210.872H377.478V201.104H404.232V210.872H400.41L399.985 205.776L399.136 204.926H394.464V225.735L395.314 226.585L398.287 227.01V229.558H383.423V226.585Z" fill="#E31B23"></path><path d="M405.507 201.781H419.946V204.329L416.973 204.754L416.124 205.179L422.069 220.892L428.015 205.179L427.59 204.329L424.617 203.904V201.356H435.234V203.904L432.262 204.329L421.22 230.659C419.946 234.057 418.247 236.605 416.548 238.303C414.85 240.002 412.727 240.851 411.028 240.851C409.754 240.851 408.48 240.427 407.63 239.578C406.781 238.728 406.356 237.879 406.356 236.605C406.356 235.755 406.781 234.906 407.206 234.482C407.63 233.632 408.479 233.207 409.329 232.783L414.425 236.18C415.275 235.755 416.124 234.482 416.548 233.632C417.398 232.358 417.823 231.084 418.672 229.385L408.479 204.329L405.082 203.904V201.781H405.507Z" fill="#E31B23"></path><path d="M436.509 241.45V238.902L439.482 238.477L440.331 237.627V206.201H436.509V204.078L444.578 201.53H447.126V204.927C448.824 203.653 450.523 202.803 451.797 202.379C453.071 201.954 454.77 201.53 456.044 201.53C459.017 201.53 461.565 202.803 463.688 205.351C465.812 207.9 466.661 210.872 466.661 214.695C466.661 219.366 465.387 222.764 462.414 225.312C459.866 227.86 456.044 229.134 451.372 229.134C450.523 229.134 449.674 229.134 449.249 229.134C448.4 229.134 447.551 229.134 447.126 229.134V238.052L447.975 238.902L451.372 239.326V241.874L436.509 241.45ZM447.126 225.736C447.551 225.736 448.4 226.161 448.824 226.161C449.249 226.161 450.099 226.161 450.523 226.161C453.071 226.161 455.195 225.312 456.468 223.188C458.168 221.065 458.592 218.517 458.592 215.119C458.592 212.147 457.743 210.023 456.468 208.324C455.195 206.626 453.496 205.776 450.948 205.776C450.523 205.776 449.674 205.776 448.824 206.201C447.975 206.201 447.126 206.626 446.276 207.051V225.736H447.126Z" fill="#E31B23"></path><path d="M124.473 180.933L112.054 184.872V194.892L124.473 190.694V180.933ZM124.473 143.92L112.054 139.569V149.875L124.473 154.045V143.92ZM134.793 187.503L182.567 171.362V163.966L134.793 147.251V157.207L166.65 167.905L134.793 178.002V187.503Z" fill="#E31B23"></path></svg> 