<?xml version="1.0" encoding="UTF-8"?> <svg xmlns="http://www.w3.org/2000/svg" width="570" height="380" viewBox="0 0 570 380" fill="none"><rect width="570" height="380" fill="#272727"></rect><g clip-path="url(#clip0_3335_3981)"><path d="M227.378 259.201C222.304 262.475 217.041 265.374 211.309 265.374C202.757 265.374 198.811 259.949 198.811 252.842C198.811 244.798 205.201 241.619 209.899 239.935C214.598 238.252 223.995 236.101 227.378 235.352V232.547V231.705C227.378 228.525 227.002 222.914 218.545 222.914C217.135 222.914 215.82 223.101 214.034 223.381V232.173H205.389C203.415 232.173 201.066 231.424 201.066 228.993C201.066 227.59 201.442 224.036 206.892 221.137C212.343 218.237 218.827 217.863 222.492 217.863C225.217 217.863 231.325 218.05 234.896 221.417C238.561 224.784 238.937 230.021 238.937 234.417V258.546L240.158 259.856L245.045 260.323V264.532H228.6L227.378 259.201ZM227.378 240.122C219.672 241.525 211.403 244.237 211.403 251.158C211.403 256.77 215.162 258.079 218.357 258.079C220.988 258.079 223.337 257.144 227.378 255.367V240.122H227.378Z" fill="#F9F9FA"></path><path d="M245.984 225.813V222.259L252.938 218.331L257.825 208.604H263.651V220.202H277.559V225.813H263.651V249.101C263.651 257.144 267.504 258.173 271.545 258.173C273.424 258.173 275.21 258.079 277.559 257.518V262.007C272.955 263.503 265.907 265 263.557 265C252.469 265 252.093 259.295 252.093 253.029V225.813H245.984Z" fill="#F9F9FA"></path><path d="M319.096 223.381C322.479 226.281 326.614 231.986 326.614 241.619C326.614 260.511 312.8 265.374 302.463 265.374C289.494 265.374 278.688 258.079 278.688 241.806C278.688 224.691 290.246 217.863 303.308 217.863C310.168 217.863 315.431 220.201 319.096 223.381ZM294.193 228.432C292.971 230.863 291.656 234.791 291.656 241.525C291.656 248.165 293.723 260.324 302.557 260.324C311.672 260.324 313.645 248.072 313.645 241.806C313.645 236.568 311.954 222.914 302.557 222.914C297.67 222.914 295.321 226.281 294.193 228.432Z" fill="#F9F9FA"></path><path d="M348.79 223.662C354.334 220.295 359.879 217.863 364.295 217.863C369.934 217.863 373.411 221.23 375.196 224.317C381.492 220.763 387.976 217.863 392.487 217.863C403.106 217.863 404.891 228.432 404.891 233.482V258.547L406.113 259.856L411 260.324V264.532H387.882V260.324L392.017 259.856L393.333 258.547V236.194C393.333 230.209 390.89 226 385.063 226C383.748 226 380.647 226.093 376.606 227.87V258.547L377.922 259.856L382.056 260.324V264.532H359.597V260.324L363.732 259.856L365.047 258.547V235.633C365.047 228.806 361.57 226 356.872 226C353.677 226 350.294 227.122 348.79 227.683V258.547L350.106 259.856L354.24 260.324V264.532H331.123V260.324L335.916 259.856L337.231 258.547V226.281H331.123V222.54L344.279 218.144H348.79V223.662H348.79Z" fill="#F9F9FA"></path><path d="M181.162 123.039L160 116V133.103L181.162 140.142V123.039Z" fill="#D92632"></path><path d="M198.34 128.752V145.855L251.012 163.374L198.34 179.529V196.633L277.764 170.683V156.756L198.34 128.752Z" fill="#D92632"></path><path d="M181.162 184.798L160 191.289V208.392L181.162 201.901V184.798Z" fill="#D92632"></path></g><defs><clipPath id="clip0_3335_3981"><rect width="251" height="149" fill="white" transform="translate(160 116)"></rect></clipPath></defs></svg> 