<svg viewBox="0 0 238 56.001" xmlns="http://www.w3.org/2000/svg" xmlns:xlink="http://www.w3.org/1999/xlink" width="238.000000" height="56.000977" fill="none" customFrame="#000000">
	<g id="Group">
		<path id="Vector" d="M59.3906 41.7235L59.3906 4.64844L81.047 4.64844L81.047 9.29665L63.8751 9.29665L63.8751 20.6958L79.2969 20.6958L79.2969 25.3441L63.8751 25.3441L63.8751 36.9647L82.2501 36.9647L82.2501 41.6129L59.3906 41.6129L59.3906 41.7235Z" fill="rgb(228,50,37)" fill-rule="nonzero" />
		<path id="Vector" d="M105 41.724L97.5626 31.8743L90.1251 41.724L84.8751 41.724L95.047 28.5541L84.3281 14.9414L90.2344 14.9414L97.5626 25.1233L105 14.9414L110.797 14.9414L100.625 28.5541L110.25 41.724L105 41.724Z" fill="rgb(228,50,37)" fill-rule="nonzero" />
		<path id="Vector" d="M117.469 37.7398L117.469 56.0006L112.984 56.0006L112.984 28.6647C112.984 21.6923 118.235 14.2773 126.437 14.2773C134.75 14.2773 140.985 19.5895 140.985 28.3326C140.985 36.8544 134.64 42.72 127.422 42.72C123.922 42.72 119.219 41.1706 117.469 37.7398ZM136.281 28.3326C136.281 22.3564 132.453 18.8149 125.672 19.1469C122.39 19.2576 117.36 21.6923 117.797 30.2141C117.906 32.9809 120.75 38.1825 126.985 38.1825C132.343 38.1825 136.281 35.0837 136.281 28.3326Z" fill="rgb(228,50,37)" fill-rule="nonzero" />
		<path id="Vector" d="M144.812 41.7226L144.812 14.9401L149.297 14.9401L149.297 17.8175C151.485 15.2721 154.875 14.3867 158.485 14.3867L158.485 19.2563C157.938 19.1457 152.578 18.4816 149.297 25.5646L149.297 41.8334L144.812 41.8334L144.812 41.7226Z" fill="rgb(228,50,37)" fill-rule="nonzero" />
		<path id="Vector" d="M159.688 28.3326C159.688 20.5856 165.156 14.2773 172.703 14.2773C182.11 14.2773 185.61 20.5856 185.61 28.6647L185.61 30.8781L164.61 30.8781C164.938 35.9691 169.422 38.6251 173.578 38.5145C176.64 38.4038 178.718 37.5184 180.906 35.305L183.86 38.4038C181.125 41.0599 177.625 42.8307 173.36 42.8307C165.375 42.72 159.688 36.7437 159.688 28.3326ZM172.375 18.8149C168.11 18.8149 164.828 22.5777 164.61 26.6726L180.906 26.6726C180.906 22.6884 178.062 18.8149 172.375 18.8149Z" fill="rgb(228,50,37)" fill-rule="nonzero" />
		<path id="Vector" d="M187.906 37.9598L191.188 34.9716C191.078 34.9716 192.828 36.7423 193.048 36.8531C193.813 37.517 194.578 37.9598 195.563 38.1811C198.406 38.9557 203.548 38.7344 203.985 34.7503C204.203 32.5369 202.563 31.3194 200.703 30.5447C198.298 29.6593 195.673 29.3274 193.266 28.2207C190.531 27.0032 188.781 24.9004 188.781 21.8017C188.781 13.7226 200.156 12.3945 205.298 16.1573C205.516 16.3786 208.031 18.7028 207.923 18.7028L204.641 21.3589C203.001 19.3668 201.47 18.3708 197.97 18.3708C196.22 18.3708 193.813 19.1455 193.376 21.0269C192.719 23.683 195.673 24.6791 197.641 25.2325C200.266 25.8964 203.11 26.3392 205.406 27.7779C208.578 29.77 209.344 34.0862 208.141 37.4064C206.828 41.0585 202.891 42.4973 199.391 42.608C195.235 42.8293 191.626 41.5012 188.673 38.5131C188.453 38.5131 187.906 37.9598 187.906 37.9598Z" fill="rgb(228,50,37)" fill-rule="nonzero" />
		<path id="Vector" d="M210.984 37.9598L214.265 34.9716C214.155 34.9716 215.905 36.7423 216.125 36.8531C216.89 37.517 217.655 37.9598 218.64 38.1811C221.484 38.9557 226.625 38.7344 227.062 34.7503C227.28 32.5369 225.64 31.3194 223.78 30.5447C221.375 29.6593 218.75 29.3274 216.343 28.2207C213.609 27.0032 211.859 24.9004 211.859 21.8017C211.859 13.7226 223.234 12.3945 228.375 16.1573C228.593 16.3786 231.109 18.7028 231 18.7028L227.718 21.3589C226.078 19.3668 224.547 18.3708 221.047 18.3708C219.297 18.3708 216.89 19.1455 216.453 21.0269C215.797 23.683 218.75 24.6791 220.718 25.2325C223.343 25.8964 226.187 26.3392 228.484 27.7779C231.655 29.77 232.422 34.0862 231.218 37.4064C229.905 41.0585 225.968 42.4973 222.468 42.608C218.312 42.8293 214.703 41.5012 211.75 38.5131C211.53 38.5131 210.984 37.9598 210.984 37.9598Z" fill="rgb(228,50,37)" fill-rule="nonzero" />
		<path id="Vector" d="M232.313 14.9387L232.313 12.0611L231.328 12.0611L231.328 11.5078L233.953 11.5078L233.953 12.0611L232.97 12.0611L232.97 14.9387L232.313 14.9387Z" fill="rgb(228,50,37)" fill-rule="nonzero" />
		<path id="Vector" d="M237.235 14.9387L237.235 12.2826L236.25 14.9387L236.031 14.9387L235.047 12.2826L235.047 14.9387L234.5 14.9387L234.5 11.5078L235.375 11.5078L236.25 13.8319L237.125 11.5078L238 11.5078L238 14.9387L237.235 14.9387Z" fill="rgb(228,50,37)" fill-rule="nonzero" />
		<path id="Vector" d="M28.9844 41.7235L25.7032 32.8698L7.98437 32.8698L4.70312 41.7235L0 41.7235L14.2187 4.64844L19.3593 4.64844L33.4688 41.7235L28.9844 41.7235ZM16.625 9.96069L9.95314 28.3323L23.8438 28.3323L16.625 9.96069Z" fill="rgb(247,151,29)" fill-rule="nonzero" />
		<path id="Vector" d="M36.4219 41.7235L36.4219 4.64844L41.0155 4.64844L41.0155 41.7235L36.4219 41.7235Z" fill="rgb(247,151,29)" fill-rule="nonzero" />
		<path id="Vector" d="M47.9062 41.7214L47.9062 15.4922L52.5 15.4922L52.5 41.7214L47.9062 41.7214Z" fill="rgb(247,151,29)" fill-rule="nonzero" />
		<path id="Vector" d="M56.875 6.97231C56.875 6.86165 56.875 6.86164 56.875 6.75097C56.875 6.64031 56.875 6.6403 56.875 6.52963C53.375 6.41896 50.5312 3.5415 50.4218 0C50.3125 0 50.2031 0 50.0938 0C49.9843 0 49.875 0 49.7656 0C49.6562 3.5415 46.8125 6.41896 43.3125 6.52963C43.3125 6.6403 43.3125 6.64031 43.3125 6.75097C43.3125 6.86164 43.3125 6.86165 43.3125 6.97231C46.8125 7.08298 49.6562 9.96047 49.7656 13.5019C49.875 13.5019 49.9843 13.5019 50.0938 13.5019C50.2031 13.5019 50.3125 13.5019 50.4218 13.5019C50.5312 9.96047 53.375 7.08298 56.875 6.97231Z" fill="rgb(247,151,29)" fill-rule="nonzero" />
	</g>
</svg>
