<svg viewBox="0 0 320.856 40" xmlns="http://www.w3.org/2000/svg" xmlns:xlink="http://www.w3.org/1999/xlink" width="320.856445" height="40.000000" fill="none" customFrame="#000000">
	<g id="Group">
		<path id="Vector" d="M181.055 39.0259L161.049 39.0259L161.049 0.941406L178.62 0.941406C186.581 0.941406 190.886 5.8776 190.886 11.7295C190.886 14.3449 189.561 17.0445 187.526 19.0654C190.533 20.6283 193.106 24.191 193.106 27.9115C193.106 34.4159 188.013 39.0259 181.055 39.0259ZM170.494 31.369L179.755 31.369C182.059 31.369 183.549 29.6691 183.549 27.6221L183.549 27.5431C183.549 25.4645 182.033 23.7963 179.755 23.7963L170.494 23.7963L170.494 31.369ZM170.494 16.1289L177.399 16.1289C179.861 16.1289 181.351 14.4291 181.351 12.382C181.351 10.3033 179.973 8.63514 177.399 8.63514L170.494 8.63514C170.494 8.62987 170.494 16.1289 170.494 16.1289Z" fill="rgb(45,190,100)" fill-rule="nonzero" />
		<path id="Vector" d="M74.7304 39.0259L60.9734 19.5548L74.2971 0.941406L63.1975 0.941406L52.5839 16.2078L52.5839 0.941406L42.916 0.941406L42.916 39.0259L52.5839 39.0259L52.5839 23.4121L63.2239 39.0259L74.7304 39.0259Z" fill="rgb(45,190,100)" fill-rule="nonzero" />
		<path id="Vector" d="M248.425 0.941406L248.425 29.1009C248.425 30.3691 247.855 31.3374 246.666 31.3374C244.986 31.3374 244.907 29.4219 244.907 28.1536L235.836 28.1536C235.836 34.2475 239.355 39.9679 246.935 39.9679C253.545 39.9679 258.061 34.6264 258.061 28.0484L258.061 9.51922L271.137 9.51922L271.137 39.0259L280.805 39.0259L280.805 0.941406L248.425 0.941406Z" fill="rgb(45,190,100)" fill-rule="nonzero" />
		<path id="Vector" d="M118.162 0.941406L104.785 29.043C102.323 34.3844 97.2041 39.9679 88.5135 39.9679C81.1225 39.9679 74.1648 35.4895 72.918 25.6486L82.2848 25.6486C82.9875 29.585 85.8032 31.3374 88.9467 31.3374C91.6252 31.3374 93.4425 29.7481 93.955 28.8271L78.0056 0.941406L89.1316 0.941406L99.2591 19.36L107.601 0.941406L118.162 0.941406Z" fill="rgb(45,190,100)" fill-rule="nonzero" />
		<path id="Vector" d="M25.7178 39.0259L0 39.0259L0 0.941406L23.314 0.941406C31.2755 0.941406 35.5812 5.8776 35.5812 11.7295C35.5812 14.3449 34.2552 17.0445 32.2212 19.0654C35.2272 20.6283 37.8 24.191 37.8 27.9115C37.7948 34.4159 32.6808 39.0259 25.7178 39.0259ZM9.44604 31.369L24.4445 31.369C26.7479 31.369 28.2378 29.6691 28.2378 27.6221L28.2378 27.5431C28.2378 25.4645 26.7215 23.7963 24.4445 23.7963L9.44604 23.7963L9.44604 31.369ZM9.44604 16.1289L22.0883 16.1289C24.5502 16.1289 26.04 14.4291 26.04 12.382C26.04 10.3033 24.6612 8.63514 22.0883 8.63514L9.44604 8.63514L9.44604 16.1289Z" fill="rgb(45,190,100)" fill-rule="nonzero" />
		<path id="Vector" d="M145.885 24.7336C144.395 28.2121 141.199 30.6696 136.735 30.6696C130.453 30.6696 126.66 25.7861 126.66 19.9869C126.66 14.1876 130.453 9.30404 136.735 9.30404C141.204 9.30404 144.395 11.7879 145.885 15.2927L156.282 15.2927C154.333 6.58334 146.994 0 136.735 0C124.684 0 116.67 9.06196 116.67 19.9869L116.67 20.0131C116.67 30.9644 124.684 40 136.735 40C146.994 40 154.333 33.4482 156.282 24.7336L145.885 24.7336Z" fill="rgb(45,190,100)" fill-rule="nonzero" />
		<path id="Vector" d="M224.461 0.941406L208.348 22.9543L208.348 0.941406L198.686 0.941406L198.686 39.0259L207.482 39.0259L223.621 17.0445L223.621 39.0259L233.289 39.0259L233.289 0.941406L224.461 0.941406Z" fill="rgb(45,190,100)" fill-rule="nonzero" />
		<path id="Vector" d="M291.746 0.941406L291.746 26.6696C291.746 29.043 290.394 30.4744 287.926 30.4744L285.084 30.4744L285.084 38.9995L290.204 38.9995C296.945 38.9995 301.414 34.7633 301.414 27.0221L301.414 9.49291L311.188 9.49291L311.188 38.9995L320.857 38.9995L320.857 0.941406L291.746 0.941406Z" fill="rgb(45,190,100)" fill-rule="nonzero" />
	</g>
</svg>
