<svg viewBox="0 0 211.84 40.0117" xmlns="http://www.w3.org/2000/svg" xmlns:xlink="http://www.w3.org/1999/xlink" width="211.839600" height="40.011719" fill="none" customFrame="#000000">
	<g id="Group">
		<path id="Vector" d="M39.9643 17.3444C39.9643 17.3444 40.9548 6.10311 41.0555 5.00251C41.0849 4.36259 40.9853 3.72334 40.7626 3.12282C40.5398 2.52231 40.1985 1.97282 39.7588 1.50712C39.3194 1.04141 38.7908 0.669026 38.2043 0.412154C37.6181 0.155279 36.9861 0.0191751 36.3461 0.0119541L7.99593 0.0119541C6.68894 -0.0787075 5.39878 0.349038 4.40439 1.20272C3.40997 2.0564 2.79123 3.26743 2.68188 4.57402C2.55595 5.89307 0.213733 33.0722 0.037437 34.6348C-0.0463098 35.3004 0.0108192 35.9761 0.20511 36.6181C0.399401 37.2602 0.726506 37.8538 1.16516 38.3612C1.60381 38.8682 2.1442 39.2771 2.75118 39.5617C3.35818 39.8461 4.01818 39.9994 4.6883 40.0121L32.9041 40.0121C36.64 40.0121 38.092 38.0291 38.4112 34.9709C38.6043 33.1479 39.4941 22.0829 39.4941 22.0829L22.4942 22.0829L21.7554 30.6273L17.4404 30.6273L19.2957 9.39652L23.6107 9.39652L22.9307 17.3444L39.9643 17.3444Z" fill="rgb(0,140,149)" fill-rule="nonzero" />
		<path id="Vector" d="M66.2588 3.44812C65.6542 5.19563 60.6927 20.7302 60.6927 20.7302L62.9005 0.0118553L45.8671 0.0118553L42.2991 40.0117L55.1353 40.0117C58.3589 40.0117 59.4671 38.1804 60.0044 36.7101C60.6424 34.9625 65.3687 21.856 65.3687 21.856L63.6309 40.0117L80.6729 40.0117L84.182 0.0118553L70.8087 0.0118553C69.7782 0.00398773 68.7739 0.336412 67.9514 0.957638C67.1287 1.57886 66.5339 2.45422 66.2588 3.44812Z" fill="rgb(0,140,149)" fill-rule="nonzero" />
		<path id="Vector" d="M152.577 0.0117188L150.982 18.2432L146.658 18.2432L148.253 0.0117188L131.22 0.0117188C131.22 0.0117188 129.583 19.3354 129.407 21.1838C129.205 23.4102 130.464 26.5692 134.242 26.5692L150.251 26.5692L149.899 30.6186L128.584 30.6186L127.744 40.0034L161.652 40.0034C163.952 40.0034 166.168 38.4995 166.47 35.29C166.681 33.2399 169.619 0.0117188 169.619 0.0117188L152.577 0.0117188Z" fill="rgb(0,140,149)" fill-rule="nonzero" />
		<path id="Vector" d="M197.044 0.0117188L173.899 0.0117188L170.406 40.0034L187.448 40.0034L188.523 27.6278L205.078 27.6278C208.008 27.6278 209.955 26.1323 210.266 22.7044C210.392 21.377 211.735 6.21209 211.828 4.87624C212.029 1.91888 209.678 0.0117188 206.79 0.0117188L197.044 0.0117188ZM189.253 19.3354L190.093 9.4131L194.366 9.4131L193.526 19.3354L189.253 19.3354Z" fill="rgb(0,140,149)" fill-rule="nonzero" />
		<path id="Vector" d="M104.388 13.4543L104.749 9.39629L126.089 9.39629L126.929 0.0117188L88.5217 0.0117188L85.0293 40.0117L119.038 40.0117C121.195 40.0117 123.537 38.7262 123.84 35.3824C124.066 32.8621 125.116 20.9821 125.309 18.8229C125.561 15.9412 123.739 13.4543 120.146 13.4543L104.388 13.4543ZM107.142 31.694L102.793 31.694L103.633 21.7719L107.981 21.7719L107.142 31.694Z" fill="rgb(0,140,149)" fill-rule="nonzero" />
	</g>
</svg>
