<svg viewBox="0 0 216.774 40" xmlns="http://www.w3.org/2000/svg" xmlns:xlink="http://www.w3.org/1999/xlink" width="216.774170" height="40.000000" fill="none">
	<rect id="Frame" width="216.774200" height="40.000000" x="0.000000" y="0.000000" />
	<path id="Vector" d="M38.6861 20.4817C42.5896 20.4817 45.7199 17.3126 45.7199 13.4479C45.7199 9.5445 42.5508 6.41406 38.6861 6.41406L18.7441 6.41406L18.7441 39.9986L22.9567 39.9986L22.9567 10.6266L26.6669 10.6266L38.6861 10.6266C40.232 10.6266 41.5074 11.902 41.5074 13.4479C41.5074 14.9938 40.232 16.2692 38.6861 16.2692L27.517 16.2692L42.0484 39.9986L47.1885 39.9986L35.0146 20.4817L38.6861 20.4817Z" fill="rgb(215,22,53)" fill-rule="evenodd" />
	<path id="Vector" d="M0 6.375L0 10.5876L12.4444 10.5876L12.4444 39.9595L16.657 39.9595L16.657 6.375L0 6.375Z" fill="rgb(215,22,53)" fill-rule="evenodd" />
	<path id="Vector" d="M88.8116 0.0386497L83.8261 0.0386497L83.7875 0.0386497L83.7875 18.1643L75.0145 0.0772994L75.0532 0L75.0145 0L70.3382 0L58.5507 23.1498L74.5121 23.1498L75.5169 25.2754L57.4299 25.2754L51.9806 35.9806L50.7053 33.8551L67.9421 0.0386497L63.2657 0.0386497L63.2271 0.0386497L48.116 29.6812L45.2947 25.0821C49.3527 22.7632 52.0579 18.4348 52.0579 13.4493C52.0579 6.06764 46.0676 0.0386497 38.6859 0.0386497L0 0.0386497L0 4.28986L38.6859 4.28986C43.7488 4.28986 47.8454 8.38648 47.8454 13.4493C47.8454 18.4348 43.8261 22.5314 38.8406 22.6086L49.7005 40L54.6859 40L60.0194 29.5266L77.5652 29.5266L82.6667 40L87.343 40L71.4203 7.14975L72.6183 4.79227L89.7005 39.9613L94.3382 39.9613L94.3382 16.7343L108.986 39.9613L113.971 39.9613L88.8116 0.0386497ZM72.4637 18.9372L65.4299 18.9372L69.0241 11.8647L72.4637 18.9372ZM90.1255 31.1498L88 26.8213L88 6.686L90.1255 10.0483L90.1255 31.1498Z" fill="rgb(215,22,53)" fill-rule="evenodd" />
	<path id="Vector" d="M203.671 14.725L195.632 14.725C194.512 14.725 193.623 13.7975 193.623 12.6381C193.623 11.4787 194.512 10.5511 195.632 10.5511L210.937 10.5511L210.937 6.33858L195.632 6.33858C192.194 6.33858 189.41 9.15984 189.41 12.6381C189.41 16.1164 192.194 18.9376 195.632 18.9376L203.671 18.9376C208.271 18.9376 211.981 22.725 211.981 27.3241C211.981 31.9618 208.232 35.7493 203.671 35.7493L190.57 35.7493L189.527 33.6236L203.71 33.6236C207.15 33.6236 209.933 30.8023 209.933 27.3241C209.933 23.8458 207.15 21.0246 203.71 21.0246L195.671 21.0246C191.072 21.0246 187.363 17.2371 187.363 12.5995C187.363 7.96176 191.111 4.21298 195.671 4.21298L210.937 4.21298L210.937 0.0390625L195.632 0.0390625C188.715 0.0390625 183.072 5.72023 183.072 12.6767C183.072 19.6333 188.715 25.3144 195.632 25.3144L203.671 25.3144C204.792 25.3144 205.681 26.2419 205.681 27.4014C205.681 28.5607 204.792 29.4884 203.671 29.4884L187.401 29.4884L172.792 0.0390625L168.078 0.0390625L166.918 2.39655L156.599 23.1502L172.521 23.1502L173.527 25.2757L156.638 25.2757C156.521 24.6188 156.368 24.0004 156.174 23.382C155.903 22.6091 155.632 21.9134 155.247 21.2178L165.72 0.0390625L161.005 0.0390625L152.232 17.6623C150.067 15.8458 147.285 14.7637 144.232 14.7637L136.194 14.7637C135.072 14.7637 134.183 13.8362 134.183 12.6767C134.183 11.5173 135.072 10.5898 136.194 10.5898L151.498 10.5898L151.498 6.37722L136.194 6.37722C132.754 6.37722 129.972 9.19849 129.972 12.6767C129.972 16.1551 132.754 18.9762 136.194 18.9762L144.232 18.9762C148.831 18.9762 152.579 22.7637 152.579 27.4014C152.579 32.0391 148.831 35.8266 144.232 35.8266L121.121 35.8266L121.121 33.6623L144.232 33.6623C147.671 33.6623 150.454 30.841 150.454 27.3627C150.454 23.8845 147.671 21.0632 144.232 21.0632L136.194 21.0632C131.595 21.0632 127.846 17.2758 127.846 12.6381C127.846 8.00042 131.595 4.21298 136.194 4.21298L151.498 4.21298L151.498 0.0390625L136.194 0.0390625C129.275 0.0390625 123.633 5.68158 123.633 12.6381C123.633 19.5947 129.275 25.2757 136.194 25.2757L144.232 25.2757C145.352 25.2757 146.241 26.2033 146.241 27.3627C146.241 28.5222 145.352 29.4496 144.232 29.4496L121.391 29.4496L121.391 0.0390625L117.179 0.0390625L117.179 33.2371L115.053 29.8748L115.053 0.0390625L110.841 0.0390625L110.841 23.1889L96.2707 0.0390625L91.2852 0.0390625L116.445 40.0004L144.232 40.0004C150.454 40.0004 155.595 35.44 156.56 29.4884L175.613 29.4884L180.87 40.0004L185.585 40.0004L169.236 7.15018L170.396 4.79268L187.942 40.0004L192.657 40.0004L203.671 40.0004C210.59 40.0004 216.232 34.3192 216.232 27.3627C216.232 20.3676 210.59 14.725 203.671 14.725ZM166.879 11.8652L170.396 18.9376L163.363 18.9376L166.879 11.8652Z" fill="rgb(215,22,53)" fill-rule="evenodd" />
</svg>
