<svg viewBox="0 0 314 41" xmlns="http://www.w3.org/2000/svg" xmlns:xlink="http://www.w3.org/1999/xlink" width="314.000000" height="41.000000" fill="none">
	<rect id="Frame" width="314.000000" height="41.000000" x="0.000000" y="0.000000" fill="rgb(255,255,255)" fill-opacity="0" />
	<path id="Vector" d="M165.37 6.63281L165.37 24.5469C165.215 27.0673 164.478 29.5877 161.182 29.5877L161.182 36.1795C172.35 36.1795 172.699 31.9142 172.699 24.5857L172.699 13.2246L186.309 13.2246L186.309 36.1795L193.91 36.1795L193.91 6.63281L165.37 6.63281Z" fill="rgb(0,50,160)" fill-rule="nonzero" />
	<path id="Vector" d="M123.802 16.0551C123.802 6.74913 115.504 6.74913 108.64 6.63281L92.7812 6.63281L92.7812 36.1795L100.381 36.1795L100.381 25.4775L108.64 25.4775C115.504 25.3612 123.802 25.3612 123.802 16.0551ZM108.33 19.8164L100.342 19.8164L100.342 12.294L108.33 12.294C113.875 12.294 116.124 12.2939 116.124 16.0551C116.124 19.8163 113.875 19.8164 108.33 19.8164Z" fill="rgb(0,50,160)" fill-rule="nonzero" />
	<path id="Vector" d="M72.8503 20.5531L64.4745 6.63281L54.9355 6.63281L68.3909 28.0755L63.7765 36.1795L72.8889 36.1795L90.0669 6.63281L80.9932 6.63281L72.8503 20.5531Z" fill="rgb(0,50,160)" fill-rule="nonzero" />
	<path id="Vector" d="M134.621 6.63672L121.088 36.1834L129.308 36.1834L131.829 30.5222L147.494 30.5222L150.092 36.1834L158.856 36.1834L144.702 6.63672L134.621 6.63672ZM134.349 24.8223L139.506 13.1121L144.896 24.8223L134.349 24.8223Z" fill="rgb(0,50,160)" fill-rule="nonzero" />
	<path id="Vector" d="M301.979 6.63281L292.867 30.1306L283.793 6.63281L271.734 6.63281L271.734 36.1795L279.334 36.1795L279.334 14.7756L287.981 36.1795L297.636 36.1795L306.4 14.4266L306.4 36.1795L314 36.1795L314 6.63281L301.979 6.63281Z" fill="rgb(0,148,93)" fill-rule="nonzero" />
	<path id="Vector" d="M242.419 27.0673L242.419 6.63281L234.857 6.63281L234.857 36.1795L243.194 36.1795L258.899 16.0551L258.899 36.1795L266.499 36.1795L266.499 6.63281L258.046 6.63281L242.419 27.0673Z" fill="rgb(0,148,93)" fill-rule="nonzero" />
	<path id="Vector" d="M222.488 6.63281L214.732 15.745L207.249 6.63281L197.361 6.63281L209.769 21.5612L197.361 36.1795L205.891 36.1795L213.957 26.8735L221.635 36.1795L231.523 36.1795L218.998 21.0959L231.523 6.63281L222.488 6.63281Z" fill="rgb(0,148,93)" fill-rule="nonzero" />
	<path id="Vector" d="M35.1205 29.4766C32.0184 29.4766 29.498 31.997 29.498 35.099C29.498 38.201 32.0184 40.7214 35.1205 40.7214C38.2227 40.7214 40.7431 38.201 40.7431 35.099C40.7819 31.997 38.2227 29.4766 35.1205 29.4766Z" fill="rgb(0,148,93)" fill-rule="nonzero" />
	<path id="Vector" d="M26.4301 9.49838C27.6185 6.62951 26.2562 3.34048 23.3872 2.15213C20.5183 0.963786 17.2291 2.32612 16.0408 5.19498C14.8524 8.06385 16.2147 11.3529 19.0837 12.5413C21.9526 13.7296 25.2418 12.3673 26.4301 9.49838Z" fill="rgb(173,172,175)" fill-rule="nonzero" />
	<path id="Vector" d="M12.5416 23.3773C13.7299 20.5084 12.3676 17.2194 9.4986 16.031C6.62965 14.8427 3.34053 16.205 2.15215 19.0739C0.963764 21.9428 2.32613 25.2318 5.19509 26.4201C8.06404 27.6085 11.3532 26.2461 12.5416 23.3773Z" fill="rgb(173,172,175)" fill-rule="nonzero" />
	<path id="Vector" d="M35.1205 15.5938C32.0184 15.5938 29.498 18.114 29.498 21.2162C29.498 24.3181 32.0184 26.8386 35.1205 26.8386C38.2226 26.8386 40.7431 24.3181 40.7431 21.2162C40.7819 18.114 38.2226 15.5938 35.1205 15.5938Z" fill="rgb(173,172,175)" fill-rule="nonzero" />
	<path id="Vector" d="M21.2378 29.4727C18.1357 29.4727 15.6152 31.993 15.6152 35.0951C15.6152 38.1971 18.1357 40.7175 21.2378 40.7175C24.3399 40.7175 26.8604 38.1971 26.8604 35.0951C26.8604 31.993 24.3399 29.4727 21.2378 29.4727Z" fill="rgb(173,172,175)" fill-rule="nonzero" />
	<path id="Vector" d="M13.0181 34.8638C13.212 33.1964 13.4059 31.3352 15.4223 29.2801C17.1672 27.5353 19.0285 27.2638 20.7734 26.9924C22.3632 26.7598 23.8755 26.5271 25.1939 25.2087C26.5123 23.8904 26.745 22.3781 26.9776 20.7884C27.249 19.0047 27.5205 17.1823 29.2654 15.4374C31.2818 13.4211 33.1818 13.1884 34.8492 13.0333C36.3227 12.8782 37.7187 12.7231 39.0758 11.366C40.3167 10.1252 40.8983 8.41906 40.6657 6.63539C40.5106 5.43336 39.9289 4.27011 39.0758 3.37827C38.184 2.48644 37.0207 1.94359 35.8186 1.78849C34.0737 1.55584 32.3287 2.13747 31.0879 3.37827C29.7307 4.73541 29.5756 6.13132 29.4205 7.60478C29.2266 9.27211 29.0328 11.1333 27.0164 13.1884C25.2714 14.9333 22.8285 15.7864 20.3856 15.5537C18.5244 15.3598 16.7406 14.5455 15.4223 13.1884C13.4059 11.1721 13.1732 9.27211 13.0181 7.60478C12.863 6.13132 12.7079 4.73541 11.3507 3.37827C10.265 2.29257 8.86904 1.71094 7.35677 1.71094C7.12411 1.71094 6.85267 1.71093 6.62001 1.74971C5.41795 1.90481 4.25466 2.48644 3.3628 3.3395C2.47094 4.23133 1.92807 5.39458 1.77297 6.59662C1.54031 8.3415 2.12196 10.0864 3.3628 11.3272C4.71997 12.6843 6.11592 12.8394 7.58942 12.9945C9.25681 13.1884 11.1181 13.3823 13.1732 15.3986C14.5304 16.7557 15.3835 18.5006 15.5386 20.3618C15.7712 22.8434 14.9182 25.2475 13.1732 26.9924C11.1569 29.0087 9.25681 29.2414 7.58942 29.3965C6.11592 29.5516 4.71997 29.7067 3.3628 31.0638C2.12196 32.3046 1.54031 34.0107 1.77297 35.7944C1.92807 36.9964 2.50972 38.1597 3.3628 39.0515C4.25466 39.9433 5.37917 40.4862 6.62001 40.6413C8.36495 40.8739 10.1099 40.2923 11.3507 39.0515C12.7079 37.7332 12.863 36.3372 13.0181 34.8638Z" fill="rgb(0,50,160)" fill-rule="nonzero" />
</svg>
