<svg viewBox="0 0 285.496 57.4502" xmlns="http://www.w3.org/2000/svg" xmlns:xlink="http://www.w3.org/1999/xlink" width="285.495850" height="57.450195" fill="none">
	<rect id="Frame" width="285.495819" height="57.450001" x="0.000000" y="0.000000" fill="rgb(255,255,255)" fill-opacity="0" />
	<path id="Vector" d="M111.085 19.7936C112.076 12.6321 108.041 7.5625 97.9021 7.5625L79.6233 7.5625L74.5449 43.7121L84.193 43.7121L85.7542 32.6168L91.7098 32.6168L97.5293 43.7121L108.695 43.7121L101.845 31.0512C107.164 28.9286 110.322 25.2492 111.085 19.7936ZM101.257 20.5918C100.854 23.4468 98.5029 25.1483 94.9594 25.1483L86.8331 25.1483L88.1487 15.8686L96.1523 15.8686C99.2397 15.8686 101.748 17.079 101.257 20.5918Z" fill="rgb(36,34,106)" fill-rule="nonzero" />
	<path id="Vector" d="M141.503 7.5625L129.68 31.2354L124.509 7.5625L113.664 7.5625L123.216 43.7121L132.307 43.7121L152.09 7.5625L141.503 7.5625Z" fill="rgb(36,34,106)" fill-rule="nonzero" />
	<path id="Vector" d="M150.883 43.7121L160.597 43.7121L165.679 7.5625L155.961 7.5625L150.883 43.7121Z" fill="rgb(36,34,106)" fill-rule="nonzero" />
	<path id="Vector" d="M20.6294 14.313C24.1378 14.313 27.2471 15.4489 30.2775 17.5539L36.0444 11.1511C32.6281 8.4277 27.4357 6.51562 21.7345 6.51562C11.3234 6.51562 5.75377 11.7168 4.89421 17.8039C4.08728 23.505 6.47299 26.5442 16.7044 29.1316C22.6818 30.6446 24.379 31.4472 24.072 33.5171C23.8001 35.3327 21.7915 36.7185 17.4674 36.7185C12.8714 36.7185 9.72265 35.5476 6.1397 32.6751L0 38.6262C4.07413 42.2925 9.52968 44.5205 16.4456 44.5205C30.0406 44.5205 33.8253 36.8764 34.3341 33.2891C35.3822 25.882 31.5843 23.7857 21.8792 21.4482C15.0203 19.7949 14.4721 18.9222 14.7221 17.2425C15.0247 15.2121 16.9587 14.313 20.6294 14.313Z" fill="rgb(36,34,106)" fill-rule="nonzero" />
	<path id="Vector" d="M266.49 34.8992C265.555 38.8603 263.31 42.3895 260.117 44.9144C256.925 47.4396 252.974 48.8122 248.904 48.8101C243.58 48.8101 239.765 46.1349 237.502 41.9642L231.577 31.0487C236.84 28.9306 240.045 25.2774 240.817 19.778C241.822 12.6209 237.774 7.54688 227.661 7.54688L209.373 7.54688L204.295 43.6965L213.943 43.6965L215.504 32.6012L221.46 32.6012L227.345 43.8281C232.809 54.2437 240.103 57.4232 248.904 57.4232C262.083 57.4232 273.673 48.5995 275.923 34.8861L266.49 34.8992ZM230.967 20.5893C230.564 23.4443 228.213 25.1459 224.67 25.1459L216.566 25.1459L217.881 15.8662L225.889 15.8662C228.972 15.8662 231.481 17.0766 230.989 20.5893L230.967 20.5893Z" fill="rgb(36,34,106)" fill-rule="nonzero" />
	<path id="Vector" d="M38.5352 43.7121L67.4838 43.7121L68.6021 35.8007L48.8761 35.8007L49.8321 29.0295L67.4882 29.0295L68.4881 21.982L50.832 21.982L51.7574 15.4739L71.2246 15.4739L72.3473 7.5625L43.653 7.5625L38.5352 43.7121Z" fill="rgb(36,34,106)" fill-rule="nonzero" />
	<path id="Vector" d="M168.506 43.7121L197.455 43.7121L198.577 35.8007L178.847 35.8007L179.807 29.0295L197.463 29.0295L198.463 21.982L180.807 21.982L181.728 15.4739L201.2 15.4739L202.318 7.5625L173.628 7.5625L168.506 43.7121Z" fill="rgb(36,34,106)" fill-rule="nonzero" />
	<path id="Vector" d="M271.212 0.175781L274.058 6.68825L280.421 3.5263L278.417 10.3458L285.324 12.0166L279.404 15.946L283.623 21.6691L276.558 20.8753L276.115 27.9667L271.212 22.8181L266.313 27.9667L265.866 20.8753L258.805 21.6691L263.024 15.946L257.104 12.0166L264.011 10.3458L262.007 3.5263L268.37 6.68825L271.212 0.175781Z" fill="rgb(234,92,71)" fill-rule="nonzero" />
</svg>
