<svg viewBox="0 0 233.765 69.9141" xmlns="http://www.w3.org/2000/svg" xmlns:xlink="http://www.w3.org/1999/xlink" width="233.764893" height="69.914062" fill="none" customFrame="#000000">
	<defs>
		<filter id="pixso_custom_mask_type_luminance">
			<feColorMatrix type="matrix" values="1 0 0 0 0 0 1 0 0 0 0 0 1 0 0 0 0 0 1 0 " />
		</filter>
	</defs>
	<mask id="mask_1" width="233.764999" height="69.913841" x="0.000000" y="0.000000" maskUnits="userSpaceOnUse">
		<g filter="url(#pixso_custom_mask_type_luminance)">
			<g id="Group">
				<path id="Vector" d="M233.765 0L0 0L0 69.9138L233.765 69.9138L233.765 0Z" fill="rgb(255,255,255)" fill-rule="nonzero" />
			</g>
		</g>
	</mask>
	<g id="Group">
		<g id="Mask group" mask="url(#mask_1)">
			<g id="Group">
				<path id="Vector" d="M0 69.9151C0 69.9151 52.6642 60.8959 116.881 60.8959C181.098 60.8959 233.762 69.9151 233.762 69.9151L233.762 65.3301C233.762 65.3301 181.098 58.1094 116.881 58.1094C52.6642 58.1094 0 65.3328 0 65.3328L0 69.9178L0 69.9151Z" fill="rgb(0,45,116)" fill-rule="nonzero" />
				<path id="Vector" d="M0 4.42346C0 4.42346 52.6642 11.6469 116.881 11.6469C181.098 11.6469 233.762 4.42346 233.762 4.42346L233.762 0C233.762 0 181.098 9.01654 116.881 9.01654C52.6642 9.01654 0 0 0 0L0 4.42346Z" fill="rgb(0,45,116)" fill-rule="nonzero" />
				<path id="Vector" d="M76.4963 45.7566L76.2189 46.7501L85.5612 46.7501L85.8412 45.7566C83.9459 45.7566 84.0132 44.1927 84.1586 42.8519L85.7013 22.0859C84.1586 22.7213 82.4032 23.4913 80.7851 23.6394L68.3547 42.3535C67.3747 43.8478 66.0366 45.4712 64.1413 45.7566L63.8613 46.7501L71.0228 46.7501L71.3028 45.7566C68.3547 45.7566 69.6901 43.5624 70.5328 42.2084L72.0782 39.8093L79.4524 39.8093L79.2451 42.6389C79.1697 44.4805 78.607 45.7566 76.4963 45.7566ZM79.5224 38.0243L73.3436 38.0243L79.7351 28.4559L80.3005 28.3239L79.5224 38.0243ZM101.508 45.9074L101.158 46.7528L112.395 46.7528L112.665 45.9074C110.287 45.9774 109.859 45.0569 110.433 42.8519L115.128 26.4663C115.753 24.2129 116.679 23.424 119.059 23.424L119.272 22.5732L100.948 22.5732L100.66 23.424C103.605 23.424 102.838 25.7663 102.138 27.5324L96.0209 43.4143C95.5336 44.6232 93.9855 45.6166 93.1428 45.5412C92.1628 45.4685 91.3201 44.6907 91.3201 43.7724C91.2501 42.4211 92.6609 41.9362 93.2855 41.9362C93.2855 40.8001 92.0174 39.8069 90.7574 39.8823C89.422 39.9334 88.0166 41.2201 88.0166 42.997C88.0166 45.2559 89.7047 47.1809 92.0874 47.2428C94.9036 47.3101 96.8743 46.3166 97.7816 43.9151L103.96 27.7451C105.016 24.9156 106.556 23.6367 108.319 23.704C109.927 23.7767 110.425 25.3975 110.067 26.679L105.5 42.8489C104.868 45.1239 103.818 45.9047 101.5 45.9047M141.402 29.4547L143.222 22.5732L122.928 22.5732L120.755 29.4547L121.598 29.4547C122.992 26.4663 127.074 23.7067 130.367 23.6394L124.683 42.8519C123.978 45.3986 122.718 45.7566 120.254 45.7566L120.114 46.7501L132.267 46.7501L132.477 45.7566C130.165 45.7566 129.042 45.4712 129.742 42.8519L135.294 23.6394C138.516 23.6394 140.689 26.3317 140.689 29.4547L141.402 29.4547ZM157.548 23.424C155.513 23.424 154.245 24.8429 153.835 26.4663L150.037 39.5939L162.397 25.909C162.96 24.1456 162.33 23.4267 160.149 23.4267L160.432 22.5759L171.459 22.5759L171.177 23.4267C168.789 23.4267 167.8 24.2129 167.173 26.469L162.47 42.8543C161.907 45.0593 162.397 45.9104 164.782 45.9104L164.57 46.7557L153.55 46.7557L153.69 45.9104C155.941 45.9104 156.921 44.9139 157.548 42.8543L161.412 29.0266L149.051 43.0024C148.707 45.0593 149.194 45.9104 151.157 45.9104L150.882 46.7557L139.922 46.7557L140.062 45.9104C142.172 45.6896 143.642 44.6959 144.132 42.8543L148.774 26.469C149.401 24.2156 148.839 23.4267 146.456 23.4267L146.803 22.5759L157.828 22.5759L157.545 23.4267L157.548 23.424ZM185.785 23.424L185.992 22.5732L175.463 22.5732L175.177 23.424C177.005 23.4913 178.061 24.1429 177.431 26.4663L172.719 42.8519C172.087 45.0569 171.034 45.9074 168.719 45.9074L168.509 46.7528L179.606 46.7528L179.886 45.9074C177.851 45.6866 177.145 44.9839 177.781 42.8519L179.676 36.4735L181.642 34.7639L185.925 43C186.628 44.2654 185.712 45.7566 184.307 45.7566L184.027 46.6804L194.145 46.6804L194.427 45.7566C192.532 45.8347 192.037 44.2654 191.334 42.8519L185.645 31.4443L191.754 26.1217C193.159 24.8402 194.495 23.564 196.533 23.424L196.813 22.5732L188.946 22.5732L188.666 23.424C192.317 23.5667 190.206 25.5456 188.736 26.7571L180.446 33.4986L182.482 26.4663C182.974 24.8429 183.674 23.4913 185.785 23.424ZM208.678 45.7566C210.78 45.7566 211.276 44.4832 211.419 42.6389L211.629 39.8093L204.257 39.8093L202.709 42.2084C201.866 43.6327 200.461 45.7566 203.482 45.7566L203.137 46.7501L196.115 46.7501L196.395 45.7566C198.285 45.4712 199.554 43.8478 200.534 42.3535L212.964 23.6394C214.647 23.4913 216.332 22.7213 217.877 22.0859L216.332 42.8519C216.189 44.2654 216.055 45.7566 218.017 45.7566L217.737 46.7501L208.4 46.7501L208.68 45.7566L208.678 45.7566ZM211.696 38.0243L212.471 28.3239L211.909 28.4559L205.517 38.0243L211.699 38.0243L211.696 38.0243ZM54.0289 33.8432L53.2563 33.8432L50.4455 44.1227C50.3082 44.7688 50.7282 45.3986 51.4282 45.3986C55.2889 45.3986 58.7297 41.8638 58.7297 37.7524C58.7297 35.1247 56.487 33.8432 54.0263 33.8432M48.2701 23.4186L48.4801 22.5759L65.6893 22.5759L66.392 29.3147L65.7593 29.3147C64.5666 24.2129 60.7678 23.8548 56.207 23.9248L53.7516 32.5105L55.0143 32.5105C58.7324 32.5105 63.7939 34.1339 63.7939 38.8186C63.7939 43.9205 58.0324 46.7528 53.4689 46.7528L41.5312 46.7528L41.7412 45.9074C44.202 45.9074 45.2547 45.1915 45.882 42.8519L50.5209 26.4663C50.9409 25.0609 51.1805 23.704 49.2797 23.4913L48.2728 23.4213L48.2701 23.4186Z" fill="rgb(0,45,116)" fill-rule="nonzero" />
				<path id="Vector" d="M46.574 22.9493C45.6748 26.8209 42.3444 29.5187 37.5467 29.438C32.959 29.3599 28.5167 26.7859 23.8617 26.9934C20.604 27.058 17.1659 27.9168 14.6352 29.866C15.9706 25.4963 19.7829 22.3947 25.2429 22.314C30.0271 22.2467 34.0386 24.527 38.7609 24.737C41.3455 24.8743 43.8359 24.5593 46.574 22.9493ZM36.1009 33.6595C31.3786 33.4522 27.3671 31.1691 22.5829 31.2364C17.1229 31.3199 13.3106 34.4187 11.9752 38.7884C14.5059 36.8391 17.9413 35.9803 21.2017 35.9157C25.8567 35.7084 30.299 38.2822 34.8867 38.3603C39.6871 38.441 43.0175 35.7434 43.914 31.8718C41.1759 33.4818 38.6882 33.7941 36.1009 33.6595ZM33.4463 42.5818C28.724 42.3745 24.7125 40.0914 19.9282 40.1587C14.4656 40.2422 10.6559 43.341 9.32056 47.7107C11.8513 45.7614 15.2867 44.9026 18.5471 44.838C23.2021 44.6307 27.6444 47.2045 32.2321 47.2826C37.0325 47.3633 40.3628 44.6657 41.2621 40.7941C38.524 42.4041 36.0336 42.7164 33.449 42.5818" fill="rgb(0,45,116)" fill-rule="nonzero" />
			</g>
		</g>
	</g>
</svg>
