<svg viewBox="0 0 242.791 103.979" xmlns="http://www.w3.org/2000/svg" xmlns:xlink="http://www.w3.org/1999/xlink" width="242.791016" height="103.978516" fill="none" customFrame="#000000">
	<g id="Group">
		<path id="Vector" d="M109.138 40.7659L105.01 40.7659L105.01 44.8942L109.138 44.8942L109.138 40.7659ZM109.138 32.7677L105.01 32.7677L105.01 36.8958L109.138 36.8958L109.138 32.7677ZM92.8836 40.7659L92.8836 44.8942L88.7555 44.8942L88.7555 40.7659L92.8836 40.7659ZM92.8836 32.7677L92.8836 36.8958L88.7555 36.8958L88.7555 32.7677L92.8836 32.7677ZM96.754 36.6378L96.754 32.5097L100.882 32.5097L100.882 36.6378L96.754 36.6378ZM96.754 44.8942L96.754 40.7659L100.882 40.7659L100.882 44.8942L96.754 44.8942ZM92.8836 24.511L88.7555 24.511L88.7555 28.6391L92.8836 28.6391L92.8836 24.511ZM125.394 16.2546L129.522 16.2546L129.522 49.0223L125.394 49.0223L125.394 16.2546ZM133.65 16.2546L137.778 16.2546L137.778 49.0223L133.65 49.0223L133.65 16.2546ZM141.906 16.2546L146.034 16.2546L146.034 49.0223L141.906 49.0223L141.906 16.2546ZM150.162 44.8942L170.546 44.8942L170.546 49.0223L150.162 49.0223L150.162 44.8942ZM150.162 36.6378L170.546 36.6378L170.546 40.7659L150.162 40.7659L150.162 36.6378ZM150.162 28.6394L170.546 28.6394L170.546 32.7677L150.162 32.7677L150.162 28.6394ZM150.162 20.3832L170.546 20.3832L170.546 24.5113L150.162 24.5113L150.162 20.3832ZM109.138 20.3832L121.523 20.3832L121.523 24.5113L109.138 24.5113L109.138 20.3832ZM72.2419 4.12809L76.3706 4.12809L76.3706 0L80.4987 0L80.4987 4.12809L109.138 4.12809L109.138 8.25642L80.4987 8.25642L80.4987 49.2805L76.3706 49.2805L76.3706 7.99819L72.2419 7.99819L72.2419 4.12809ZM150.162 12.1265L170.546 12.1265L170.546 16.2546L150.162 16.2546L150.162 12.1265ZM88.7549 16.2546L88.7549 20.3829L92.883 20.3829L92.883 16.2546L88.7549 16.2546ZM96.7534 24.511L96.7534 28.6391L100.882 28.6391L100.882 24.511L96.7534 24.511ZM117.394 40.7659L113.266 40.7659L113.266 44.8942L117.394 44.8942L117.394 40.7659ZM117.394 32.7677L113.266 32.7677L113.266 36.8958L117.394 36.8958L117.394 32.7677ZM100.882 12.1265L121.264 12.1265L121.264 16.2546L100.882 16.2546L100.882 12.1265ZM84.6262 12.1265L97.0111 12.1265L97.0111 20.3829L105.267 20.3829L105.267 28.6391L121.523 28.6391L121.523 32.7674L121.523 36.8955L121.523 41.0239L121.523 45.152L121.523 49.28L84.6262 49.28L84.6262 12.1265Z" fill="rgb(210,170,104)" fill-rule="evenodd" />
		<path id="Vector" d="M241.242 92.8843L238.92 92.8843C238.146 92.8843 237.372 93.1419 236.856 93.4002C236.34 93.916 236.082 94.4319 236.082 95.2066C236.082 95.9807 236.34 96.4965 236.856 97.0124C237.372 97.5288 237.888 97.7865 238.92 97.7865L241.242 97.7865L241.242 92.8843ZM235.824 103.72L234.018 103.72L236.856 98.5606C236.082 98.3023 235.566 97.7865 235.049 97.27C234.534 96.7542 234.534 95.9801 234.534 95.206C234.534 94.1743 234.792 93.1419 235.566 92.6261C236.34 92.1102 237.372 91.5938 238.662 91.5938L242.532 91.5938L242.532 103.72L240.984 103.72L240.984 99.0764L238.145 99.0764L235.824 103.72L235.824 103.72ZM229.631 91.5938L231.18 91.5938L231.18 103.72L229.631 103.72L229.631 94.4319L223.697 103.72L222.149 103.72L222.149 91.5938L223.697 91.5938L223.697 100.882L229.631 91.5938ZM218.279 103.72L216.731 103.72L216.731 98.3023L210.796 98.3023L210.796 103.72L209.248 103.72L209.248 91.5938L210.796 91.5938L210.796 97.0124L216.731 97.0124L216.731 91.5938L218.279 91.5938L218.279 103.72ZM199.444 99.3347L203.572 99.3347L201.508 93.6578L199.444 99.3347ZM204.088 100.625L198.928 100.625L197.896 103.72L196.347 103.72L200.992 91.5938L202.282 91.5938L206.926 103.72L205.378 103.72L204.088 100.625L204.088 100.625ZM193.767 103.72L192.219 103.72L192.219 92.8843L186.285 92.8843L186.285 103.72L184.737 103.72L184.737 91.5938L194.026 91.5938L194.026 103.72L193.767 103.72ZM171.062 91.5938L174.933 101.399L178.803 91.5938L180.867 91.5938L180.867 103.72L179.319 103.72L179.319 98.8182L179.577 93.916L175.707 103.72L174.675 103.72L170.805 93.916L171.062 98.8182L171.062 103.72L169.514 103.72L169.514 91.5938L171.062 91.5938ZM164.096 96.4959C164.096 95.4642 163.838 94.4319 163.322 93.6578C162.806 92.8843 162.032 92.6261 161 92.6261C159.967 92.6261 159.194 92.8843 158.677 93.6578C158.162 94.4319 157.903 95.2066 157.903 96.4959L157.903 98.8182C157.903 99.8505 158.162 100.883 158.677 101.656C159.194 102.43 159.967 102.689 161 102.689C162.032 102.689 162.806 102.43 163.322 101.656C163.838 100.882 164.096 100.108 164.096 98.8182L164.096 96.4959ZM165.644 98.8182C165.644 100.367 165.128 101.656 164.354 102.43C163.322 103.463 162.29 103.979 160.742 103.979C159.452 103.979 158.162 103.463 157.388 102.43C156.614 101.399 156.098 100.108 156.098 98.8182L156.098 96.7542C156.098 95.206 156.614 94.1743 157.388 93.1419C158.162 92.1102 159.452 91.5938 160.742 91.5938C162.29 91.5938 163.322 92.1102 164.354 93.1419C165.386 94.1743 165.644 95.4642 165.644 96.7542L165.644 98.8182ZM148.1 98.3023L146.551 98.3023L146.551 103.72L145.261 103.72L145.261 91.5938L146.809 91.5938L146.809 97.0124L148.1 97.0124L152.486 91.5938L154.292 91.5938L149.648 97.5283L154.808 103.72L152.744 103.72L148.1 98.3023ZM135.715 92.8843L133.392 92.8843C132.618 92.8843 131.844 93.1419 131.328 93.4002C130.812 93.916 130.554 94.4319 130.554 95.2066C130.554 95.9807 130.812 96.4965 131.328 97.0124C131.844 97.5288 132.36 97.7865 133.392 97.7865L135.715 97.7865L135.715 92.8843ZM130.296 103.72L128.49 103.72L131.328 98.5606C130.554 98.3023 130.038 97.7865 129.522 97.27C129.006 96.7542 129.006 95.9801 129.006 95.206C129.006 94.1743 129.264 93.1419 130.038 92.6261C130.812 92.1102 131.844 91.5938 133.134 91.5938L137.004 91.5938L137.004 103.72L135.456 103.72L135.456 99.0764L132.618 99.0764L130.296 103.72ZM119.459 99.3347L123.588 99.3347L121.523 93.6578L119.459 99.3347ZM124.104 100.625L118.944 100.625L117.912 103.72L116.364 103.72L121.008 91.5938L122.298 91.5938L126.942 103.72L125.394 103.72L124.104 100.625ZM113.783 103.72L112.236 103.72L112.236 98.3023L106.301 98.3023L106.301 103.72L104.753 103.72L104.753 91.5938L106.301 91.5938L106.301 97.0124L112.236 97.0124L112.236 91.5938L113.783 91.5938L113.783 103.72ZM94.6903 97.7865L94.6903 102.43L97.7866 102.43C98.5607 102.43 99.3348 102.173 99.5925 101.656C100.109 101.14 100.109 100.625 100.109 99.8505C100.109 99.0764 99.8507 98.56 99.5925 98.3023C99.0766 97.7859 98.5607 97.7859 97.7866 97.7859L94.6903 97.7865ZM94.6903 96.4959L97.7866 96.4959C99.0766 96.4959 100.109 96.7542 100.882 97.5283C101.657 98.0441 101.915 99.0764 101.915 100.108C101.915 101.14 101.657 102.173 100.882 102.688C100.108 103.463 99.0766 103.72 97.7866 103.72L93.1421 103.72L93.1421 91.5938L94.6903 91.5938L94.6903 96.4959ZM89.5305 91.5938L89.5305 103.72L87.9817 103.72L87.9817 92.8843L83.3377 92.8843L83.3377 97.27C83.3377 99.5923 83.0795 101.14 82.5636 102.173C82.0478 103.205 81.0155 103.72 79.7255 103.72L79.2096 103.72L79.2096 102.43L79.4679 102.43C80.242 102.43 80.7578 101.915 81.0161 101.14C81.2737 100.366 81.5319 99.0764 81.5319 97.27L81.5319 91.5938L89.5305 91.5938ZM76.8874 98.0441L71.2111 98.0441L71.2111 102.43L77.6615 102.43L77.6615 103.72L69.6635 103.72L69.6635 91.5938L77.6615 91.5938L77.6615 92.8843L71.2111 92.8843L71.2111 96.7542L76.8874 96.7542L76.8874 98.0441ZM67.3412 92.8843L63.4708 92.8843L63.4708 103.72L61.9226 103.72L61.9226 92.8843L58.0526 92.8843L58.0526 91.5938L67.5989 91.5938L67.5989 92.8843L67.3412 92.8843ZM53.9245 91.5938L55.4725 91.5938L55.4725 103.72L53.9245 103.72L53.9245 94.4319L47.9902 103.72L46.442 103.72L46.442 91.5938L47.9902 91.5938L47.9902 100.882L53.9245 91.5938ZM41.5398 96.4959C41.5398 95.4642 41.2816 94.4319 40.7656 93.6578C40.2495 92.8843 39.4754 92.6261 38.4433 92.6261C37.4112 92.6261 36.6371 92.8843 36.1211 93.6578C35.605 94.4319 35.3471 95.2066 35.3471 96.4959L35.3471 98.8182C35.3471 99.8505 35.605 100.883 36.1211 101.656C36.6371 102.43 37.4112 102.689 38.4433 102.689C39.4754 102.689 40.2495 102.43 40.7656 101.656C41.2816 100.882 41.5398 100.108 41.5398 98.8182L41.5398 96.4959ZM43.346 98.8182C43.346 100.367 42.8298 101.656 42.0557 102.43C41.0236 103.463 39.9915 103.979 38.4435 103.979C37.1535 103.979 35.8637 103.463 35.0895 102.43C34.3154 101.399 33.7993 100.108 33.7993 98.8182L33.7993 96.7542C33.7993 95.206 34.3154 94.1743 35.0895 93.1419C35.8637 92.1102 37.1537 91.5938 38.4435 91.5938C39.9918 91.5938 41.0236 92.1102 42.0557 93.1419C43.0878 94.1743 43.346 95.4642 43.346 96.7542L43.346 98.8182ZM24.2528 97.5283L27.349 97.5283C28.123 97.5283 28.897 97.27 29.1553 96.7542C29.6712 96.2383 29.6712 95.7224 29.6712 95.206C29.6712 94.4319 29.4132 93.916 29.1553 93.6578C28.6391 93.1419 28.123 92.8837 27.349 92.8837L24.2528 92.8837L24.2528 97.5283ZM24.2528 98.8182L24.2528 103.72L22.7048 103.72L22.7048 91.5938L27.349 91.5938C28.6391 91.5938 29.6712 91.852 30.4451 92.6261C31.2192 93.4002 31.4771 94.1743 31.4771 95.206C31.4771 96.2383 31.2192 97.27 30.4451 97.7859C29.671 98.56 28.6389 98.8182 27.349 98.8182L24.2528 98.8182ZM20.1247 92.8843L16.2546 92.8843L16.2546 103.72L14.4484 103.72L14.4484 92.8843L10.5783 92.8843L10.5783 91.5938L20.1247 91.5938L20.1247 92.8843ZM9.28803 99.8505C9.28803 101.14 9.03004 101.915 7.99795 102.689C7.22386 103.463 6.19178 103.979 4.644 103.979C3.35373 103.979 2.06391 103.463 1.2898 102.43C0.515683 101.399 -0.000244141 100.366 -0.000244141 98.8182L-0.000244141 96.7542C-0.000244141 95.206 0.515683 93.916 1.2898 93.1419C2.06391 92.1102 3.35396 91.5938 4.644 91.5938C5.93403 91.5938 7.22386 91.852 7.99795 92.6261C8.7721 93.4002 9.28803 94.4319 9.28803 95.4642L7.48203 95.4642C7.48203 94.6901 7.22386 93.916 6.70794 93.3996C6.19178 92.8837 5.41767 92.6255 4.64378 92.6255C3.61147 92.6255 3.09554 92.8837 2.57939 93.6578C2.06347 94.4319 1.80527 95.206 1.80527 96.4959L1.80527 98.8182C1.80527 99.8505 2.06347 100.882 2.57939 101.656C3.09554 102.43 3.86966 102.688 4.64378 102.688C5.67585 102.688 6.19178 102.43 6.70794 101.914C7.22386 101.398 7.48203 100.624 7.48203 99.8499L9.28803 99.8499L9.28803 99.8505Z" fill="rgb(210,170,104)" fill-rule="evenodd" />
		<path id="Vector" d="M50.8285 65.7932L55.4725 65.7932C57.2787 65.7932 58.8267 67.3414 58.8267 69.1472C58.8267 70.9536 57.2785 72.5018 55.4725 72.5018L50.8285 72.5018L50.8285 65.7932ZM206.927 75.5976L206.927 80.4998L212.345 80.4998C213.635 80.4998 214.668 79.468 214.668 78.1781C214.668 76.8881 213.635 75.8558 212.345 75.8558L206.927 75.8558L206.927 75.5976ZM206.927 65.7932L206.927 70.6954L211.571 70.6954C212.861 70.6954 213.893 69.6637 213.893 68.3737C213.893 67.0832 212.861 66.0514 211.571 66.0514L206.927 66.0514L206.927 65.7932ZM229.89 75.5976L231.954 69.1472L234.018 75.5976L229.89 75.5976ZM220.859 85.4025L226.535 85.4025L228.084 80.4998L235.566 80.4998L237.114 85.4025L242.791 85.4025L234.793 60.891L228.6 60.891L220.86 85.4025L220.859 85.4025ZM201.25 60.891L211.571 60.891C215.699 60.891 218.795 64.245 218.795 68.1155C218.795 69.6637 218.279 71.2119 217.247 72.5018C218.795 73.7918 219.57 75.8558 219.57 77.9205C219.57 82.0485 216.215 85.1443 212.345 85.1443L201.25 85.1443L201.25 60.891ZM133.909 60.891L139.585 60.891L139.585 70.6954L141.391 70.6954L148.1 60.891L154.034 60.891L146.036 72.5018L154.808 85.1443L148.874 85.1443L142.165 75.5976L139.843 75.5976L139.843 85.4025L134.167 85.4025L134.167 60.891L133.909 60.891ZM176.223 60.891L181.899 60.891L181.899 75.8558L190.93 60.891L196.606 60.891L196.606 85.4025L190.93 85.4025L190.93 70.4378L181.899 85.6602L176.223 85.6602L176.223 60.891ZM173.643 60.891L155.066 60.891L155.066 65.7932L161.516 65.7932L161.516 85.4025L167.193 85.4025L167.193 65.7932L173.643 65.7932L173.643 60.891ZM109.139 85.4025L103.463 85.4025L103.463 65.7932L94.4329 65.7932L94.4329 85.4025L88.7567 85.4025L88.7567 60.891L109.139 60.891L109.139 85.4025ZM76.63 60.6328C81.7899 60.6328 85.9185 64.5033 86.4344 69.6637L80.7581 69.6637C80.4999 67.5996 78.6935 65.7932 76.63 65.7932C74.3072 65.7932 72.5019 67.5996 72.5019 69.9213L72.5019 76.3717C72.5019 78.6945 74.3078 80.4998 76.63 80.4998C78.6941 80.4998 80.4999 78.9522 80.7581 76.8881L86.4344 76.8881C85.9185 81.7903 81.7899 85.9184 76.63 85.9184C71.2114 85.9184 66.8251 81.5321 66.8251 76.114L66.8251 70.4378C66.8251 65.0191 71.2114 60.6328 76.63 60.6328ZM40.5079 60.891L25.2849 60.891L25.2849 85.4025L40.5079 85.4025L40.5079 80.4998L30.9612 80.4998L30.9612 75.5976L40.5079 75.5976L40.5079 70.6954L30.9612 70.6954L30.9612 65.7932L40.5079 65.7932L40.5079 60.891ZM45.1521 85.4025L50.8285 85.4025L50.8285 77.6622L56.2466 77.6622C60.8906 77.6622 64.5028 74.05 64.5028 69.406C64.5028 64.7615 60.8906 61.1493 56.2466 61.1493L45.1521 61.1493L45.1521 85.4025ZM119.718 65.7932L119.718 70.6954L129.265 70.6954L129.265 75.5976L119.718 75.5976L119.718 80.4998L129.265 80.4998L129.265 85.4025L114.042 85.4025L114.042 60.891L129.265 60.891L129.265 65.7932L119.718 65.7932ZM20.3827 85.4025L14.7064 85.4025L14.7064 65.7932L5.67608 65.7932L5.67608 85.4025L-0.000244141 85.4025L-0.000244141 60.891L20.3827 60.891L20.3827 85.4025Z" fill="rgb(33,53,107)" fill-rule="evenodd" />
	</g>
</svg>
